<?xml version="1.0" standalone="no"?>
<!DOCTYPE svg PUBLIC "-//W3C//DTD SVG 20010904//EN"
 "http://www.w3.org/TR/2001/REC-SVG-20010904/DTD/svg10.dtd">
<svg version="1.0" xmlns="http://www.w3.org/2000/svg"
 width="1080.000000pt" height="1255.000000pt" viewBox="0 0 1080.000000 1255.000000"
 preserveAspectRatio="xMidYMid meet">
<metadata>
Created by potrace 1.16, written by Peter Selinger 2001-2019
</metadata>
<g transform="translate(0.000000,1255.000000) scale(0.100000,-0.100000)"
fill="#000000" stroke="none">
<path d="M5185 12270 c-412 -51 -517 -71 -700 -131 -127 -42 -355 -155 -555
-275 -303 -183 -625 -459 -773 -664 -9 -14 -50 -70 -90 -125 -181 -247 -224
-363 -319 -860 -27 -145 -16 -415 32 -755 19 -132 18 -140 -25 -140 -46 0
-399 -86 -565 -137 -63 -19 -129 -39 -147 -44 -73 -22 -304 -129 -371 -172
-40 -26 -109 -82 -155 -125 -45 -43 -108 -102 -141 -132 -32 -30 -73 -73 -90
-96 -17 -22 -56 -74 -88 -115 -87 -114 -158 -265 -231 -486 -70 -212 -101
-348 -117 -510 -10 -109 0 -275 19 -312 14 -25 19 -27 211 -46 251 -26 377
-65 543 -168 28 -18 69 -42 91 -52 21 -11 50 -35 65 -54 14 -18 49 -62 78 -98
38 -47 57 -83 73 -136 12 -40 42 -118 67 -175 43 -98 45 -103 29 -127 -9 -14
-21 -25 -26 -25 -5 0 -36 -46 -69 -102 -64 -108 -127 -197 -302 -425 -194
-254 -256 -362 -301 -528 -11 -38 -36 -128 -56 -200 l-36 -130 0 -300 c-1
-296 8 -417 45 -602 11 -54 76 -175 144 -268 13 -19 12 -26 -15 -83 -16 -34
-57 -149 -91 -254 -34 -105 -75 -221 -91 -257 -67 -147 -116 -324 -144 -516
-13 -95 -15 -160 -11 -310 10 -334 62 -537 212 -835 74 -148 91 -176 171 -295
78 -115 187 -239 295 -336 84 -76 294 -234 327 -246 9 -4 33 -16 52 -28 195
-120 526 -273 655 -303 80 -18 214 -40 290 -48 39 -3 150 -22 249 -40 98 -19
204 -37 235 -40 122 -12 235 -37 309 -68 67 -29 78 -37 82 -62 l5 -29 198 -3
198 -2 -29 37 c-36 46 -62 151 -41 164 7 4 19 3 26 -3 7 -6 13 -8 13 -5 0 10
-43 52 -72 70 -18 11 -28 26 -28 42 0 13 -7 28 -17 33 -12 7 -14 18 -10 40 4
20 2 32 -6 35 -6 2 -12 12 -12 23 0 15 -6 19 -35 17 -57 -4 -64 -5 -77 -15
-14 -11 -69 44 -89 90 -16 36 -38 41 -82 18 -29 -15 -81 -18 -97 -7 -5 4 -28
13 -50 20 -36 11 -45 10 -89 -9 -45 -20 -50 -21 -65 -6 -14 14 -14 18 -1 26
11 7 12 14 3 32 -6 13 -15 32 -19 43 -6 16 -9 13 -13 -19 -5 -35 -7 -37 -20
-23 -7 10 -20 17 -28 17 -8 0 -21 16 -29 35 -18 44 -18 55 1 55 8 0 15 -4 15
-9 0 -5 7 -11 15 -15 12 -4 15 3 15 37 0 31 -3 38 -10 27 -5 -8 -10 -10 -10
-4 0 5 5 15 12 22 9 9 7 13 -8 17 -10 4 -27 11 -36 16 -10 5 -25 9 -34 9 -27
0 -10 23 27 36 27 9 31 13 17 19 -25 10 -23 35 2 35 12 0 24 10 30 24 5 13 21
32 36 43 14 10 60 53 102 96 51 52 83 77 99 77 13 0 23 3 24 8 3 28 10 46 23
61 9 10 16 22 16 28 0 11 79 95 115 124 11 8 47 46 80 83 33 38 66 75 73 82
16 17 53 19 50 2 -2 -6 11 -20 27 -32 22 -15 29 -28 27 -44 -3 -21 -1 -23 20
-16 13 4 37 8 55 9 17 2 36 6 42 9 6 4 11 0 11 -8 0 -8 13 -29 29 -45 27 -27
35 -30 86 -28 36 2 60 8 66 17 8 11 9 4 5 -27 -3 -23 -9 -48 -12 -56 -5 -14
23 -32 79 -51 19 -6 22 -42 7 -95 -8 -28 -6 -38 7 -53 9 -10 24 -18 33 -18 10
0 28 -8 40 -18 20 -16 21 -22 12 -71 -9 -50 -8 -56 13 -75 18 -17 21 -26 13
-40 -5 -9 -7 -21 -3 -24 4 -4 11 1 16 11 6 9 21 17 35 17 26 0 26 0 22 -77
l-3 -78 28 -3 c31 -4 32 -11 12 -66 -8 -22 -12 -43 -10 -46 2 -4 26 -15 52
-25 26 -10 52 -21 57 -26 5 -4 1 -30 -8 -60 -18 -53 -18 -53 6 -70 12 -10 37
-20 55 -24 37 -7 50 -22 34 -38 -20 -20 -13 -100 12 -127 43 -49 66 -88 72
-123 6 -31 11 -35 46 -41 25 -4 39 -12 39 -21 0 -8 -4 -15 -10 -15 -5 0 -10
-5 -10 -11 0 -8 4 -9 13 0 8 6 18 7 22 3 5 -4 5 -1 1 6 -4 6 -2 12 5 12 7 0
10 -11 7 -30 l-5 -30 179 0 c110 0 178 4 178 10 0 11 75 9 86 -3 15 -14 34 -6
34 14 0 12 8 23 20 26 15 4 18 9 10 24 -11 20 14 99 31 99 5 0 9 10 9 23 1 32
23 57 52 57 14 0 40 3 57 6 30 6 31 8 31 58 0 63 13 82 63 89 57 9 67 21 67
87 0 58 15 81 38 58 7 -7 20 -6 41 3 31 14 51 45 51 79 0 11 5 20 10 20 6 0
10 -4 10 -10 0 -5 7 -10 15 -10 26 0 14 31 -17 43 -28 10 -22 37 7 37 14 0 25
4 25 8 0 5 17 14 38 20 l38 12 -1 61 0 62 50 17 50 17 1 57 c2 66 5 70 59 89
l40 14 -2 70 -3 69 38 19 c20 10 45 26 55 34 19 16 23 61 6 78 -8 8 -1 14 26
23 l36 12 -6 62 -7 63 34 15 c18 9 42 18 53 20 14 2 20 11 20 28 0 16 7 26 19
28 28 6 86 -8 86 -20 0 -6 18 -34 39 -62 22 -28 45 -63 52 -78 7 -16 16 -28
21 -28 4 0 8 -4 8 -10 0 -5 18 -28 41 -51 33 -33 38 -43 28 -55 -12 -14 -7
-18 24 -15 9 1 17 -2 17 -7 0 -5 11 -22 25 -38 27 -31 31 -44 15 -44 -5 0 -10
-5 -10 -11 0 -6 6 -9 14 -6 27 11 71 -119 61 -176 -4 -20 -1 -43 9 -61 16 -31
13 -51 -10 -60 -8 -3 -14 -11 -14 -17 0 -9 4 -9 14 0 9 7 17 8 20 2 8 -13 -3
-38 -20 -45 -8 -3 -14 -10 -14 -16 0 -6 5 -8 10 -5 19 12 10 -28 -15 -72 -18
-29 -33 -43 -48 -44 -16 -1 -17 -3 -5 -6 13 -3 8 -12 -25 -44 -23 -21 -50 -39
-60 -39 -11 0 -23 -11 -29 -28 -11 -28 -12 -28 -39 -15 -24 12 -31 11 -66 -8
-57 -32 -63 -39 -63 -75 0 -31 -3 -34 -29 -34 -16 0 -31 6 -34 13 -8 23 -45
-23 -52 -64 -4 -21 -11 -37 -16 -33 -5 3 -9 -8 -9 -24 0 -18 -6 -32 -16 -36
-10 -4 -14 -12 -10 -22 4 -9 2 -22 -4 -29 -7 -9 -7 -21 0 -40 13 -35 -8 -72
-46 -81 -20 -5 -24 -11 -20 -28 4 -11 9 -33 12 -48 l7 -28 224 0 c147 0 222 3
218 10 -3 6 1 10 10 10 8 0 18 7 21 15 4 9 14 14 23 13 23 -4 26 43 6 82 -9
17 -32 40 -50 51 -30 18 -54 54 -43 65 9 8 212 25 239 19 19 -4 31 -16 38 -36
13 -37 99 -159 113 -159 6 0 7 7 2 18 -5 9 -8 41 -6 70 1 35 -4 62 -15 78 -8
14 -14 26 -12 28 2 2 81 9 174 15 429 28 675 139 1143 520 51 42 107 86 125
99 63 45 189 179 273 288 129 169 296 492 458 885 29 70 96 291 96 315 0 4
-18 -10 -40 -30 -22 -20 -46 -36 -53 -36 -6 0 0 10 15 23 15 12 38 43 51 69
23 43 24 53 16 115 -14 114 -36 194 -57 207 -5 3 -10 16 -10 28 0 35 -21 83
-32 72 -9 -9 2 -81 19 -119 15 -33 20 -65 10 -71 -18 -11 -8 -24 19 -25 22 -1
23 -2 5 -6 -12 -2 -27 -11 -34 -19 -10 -12 -8 -19 11 -39 l23 -24 -37 6 c-37
6 -49 -10 -25 -34 8 -8 8 -17 -1 -32 -6 -12 -8 -26 -5 -31 3 -6 1 -10 -4 -10
-6 0 -11 -9 -11 -20 0 -11 -7 -23 -15 -26 -11 -4 -15 -21 -15 -55 0 -27 -4
-49 -10 -49 -5 0 -10 6 -10 13 -1 28 -22 -27 -30 -80 -5 -31 -18 -65 -29 -77
-11 -12 -24 -32 -29 -46 -9 -22 -10 -21 -9 15 0 22 4 45 9 52 6 7 5 20 -1 32
-15 28 -14 77 4 110 11 23 12 34 2 55 -16 34 -27 33 -27 -1 l-1 -28 -14 25
c-17 29 -19 70 -5 70 15 0 8 52 -8 69 -8 8 -11 24 -8 37 5 19 3 22 -11 17 -10
-4 -21 -11 -25 -17 -11 -17 -35 11 -48 59 -12 42 -20 49 -57 48 -6 0 -19 14
-27 31 -15 30 -16 30 -16 6 0 -14 -4 -20 -8 -14 -4 5 -25 21 -47 34 -22 13
-58 38 -80 56 -22 17 -58 41 -80 52 -23 11 -47 32 -55 46 -9 19 -19 25 -32 20
-14 -4 -18 0 -18 20 0 14 -4 26 -10 26 -5 0 -10 -7 -10 -15 0 -19 -3 -19 -48
3 -58 29 -82 46 -82 59 0 15 -16 17 -25 4 -6 -10 -44 -1 -102 25 -17 8 -35 14
-41 14 -5 0 -15 6 -21 13 -17 21 -191 67 -258 69 -25 0 -30 17 -12 35 16 16 1
71 -23 84 -11 6 -31 8 -44 5 -35 -9 -30 7 16 48 49 44 68 45 81 6 15 -42 33
-38 25 5 -8 39 -2 42 66 26 32 -7 40 -5 59 15 25 27 49 31 49 9 0 -8 5 -15 10
-15 6 0 10 7 10 16 0 13 7 15 33 10 17 -4 48 -9 67 -13 21 -3 45 -17 60 -34
27 -30 62 -34 66 -6 1 9 -9 30 -22 48 -13 18 -21 36 -18 41 8 12 56 -2 80 -24
22 -19 22 -19 48 7 14 14 26 32 26 40 0 19 33 19 85 1 35 -12 41 -12 51 3 10
13 15 14 25 4 7 -7 21 -13 30 -13 9 0 22 -7 29 -15 16 -19 30 -19 30 -1 0 10
10 13 35 11 40 -4 93 -49 218 -183 27 -29 55 -52 62 -52 31 0 33 76 4 137 -12
24 -19 46 -16 49 9 9 57 -100 57 -128 0 -14 -5 -38 -10 -55 -18 -49 27 -131
63 -117 13 4 17 1 17 -16 0 -12 18 -37 43 -61 29 -26 48 -54 56 -82 7 -23 26
-78 42 -122 16 -44 36 -109 44 -145 l15 -65 -4 90 c-7 134 -24 256 -47 343
-30 107 -119 282 -163 318 -23 20 -49 61 -80 128 -53 113 -145 265 -189 313
-27 29 -29 36 -23 77 4 25 25 84 46 130 47 101 63 161 131 501 l52 260 -12
178 c-7 97 -19 199 -27 226 -32 108 -134 263 -309 467 -55 64 -127 151 -160
193 -33 42 -91 113 -130 158 -38 44 -112 131 -163 192 l-94 112 12 66 c6 35
17 81 25 101 7 21 19 61 25 90 7 29 20 58 29 65 9 6 29 32 43 57 56 96 116
163 239 265 74 62 96 75 125 75 20 0 70 9 112 19 43 11 118 27 167 36 50 8
128 24 175 35 47 10 101 21 121 25 42 6 124 85 135 131 11 42 -3 319 -21 419
-60 330 -151 587 -279 788 -78 121 -277 343 -386 431 -121 97 -166 124 -370
227 -200 99 -339 137 -630 169 -154 17 -188 27 -206 62 -14 28 -14 40 1 132 9
55 25 140 36 189 23 105 29 253 18 442 -8 157 -23 226 -81 400 -89 268 -213
500 -372 700 -31 39 -75 95 -98 125 -171 226 -284 332 -558 525 -258 181 -432
268 -680 339 -30 9 -84 24 -120 35 -36 10 -94 24 -130 31 -36 6 -101 20 -145
30 -94 23 -298 51 -358 49 -23 -1 -69 -5 -102 -9z m559 -83 c10 -8 19 -30 21
-57 2 -25 11 -65 19 -89 9 -24 16 -61 16 -81 0 -21 7 -66 16 -100 9 -35 13
-77 10 -95 -4 -17 2 -77 13 -131 11 -55 20 -119 19 -143 0 -47 10 -65 34 -56
18 7 98 97 178 200 138 177 254 305 276 305 18 0 18 -15 -2 -81 -21 -74 -40
-143 -60 -214 -9 -33 -20 -69 -24 -80 -5 -11 -11 -35 -14 -53 -3 -19 -13 -48
-21 -65 -8 -18 -24 -63 -34 -100 -16 -54 -17 -69 -7 -73 13 -5 267 113 316
147 46 31 265 137 297 144 47 9 56 -15 38 -99 -17 -82 -42 -170 -61 -214 -8
-18 -14 -41 -14 -51 0 -10 -7 -35 -15 -54 -8 -20 -15 -47 -15 -61 0 -23 3 -24
43 -21 44 3 57 7 124 37 192 84 284 113 313 98 18 -9 18 -14 7 -40 -6 -15 -94
-106 -195 -201 -101 -94 -179 -176 -175 -180 10 -10 216 -26 448 -34 120 -4
174 -10 183 -19 12 -11 -9 -37 -125 -152 -76 -77 -180 -175 -231 -218 -74 -64
-92 -85 -92 -107 0 -26 2 -28 63 -33 34 -3 141 -9 237 -13 96 -4 191 -8 210
-8 19 -1 53 -3 75 -4 34 -1 37 -3 25 -14 -17 -15 -101 -46 -200 -72 -36 -10
-93 -29 -128 -42 -34 -13 -93 -33 -130 -44 -64 -20 -102 -42 -102 -60 0 -5 35
-26 78 -48 43 -22 93 -53 111 -70 18 -17 41 -31 51 -31 11 0 22 -4 25 -10 6
-10 108 -70 183 -108 26 -13 54 -28 62 -33 8 -5 26 -14 40 -20 14 -6 36 -17
50 -23 65 -29 53 -50 -47 -84 -138 -47 -216 -77 -238 -90 l-20 -12 20 -12 c11
-7 40 -18 65 -24 115 -30 200 -60 200 -71 0 -7 -25 -29 -56 -49 l-55 -37 -27
20 c-19 14 -38 19 -59 16 -17 -3 -34 0 -37 6 -4 6 -25 11 -46 11 -31 0 -38 -3
-34 -15 5 -12 -2 -15 -33 -15 -47 0 -73 26 -73 73 0 29 -5 35 -41 51 -45 20
-63 52 -54 100 5 24 2 36 -14 50 -12 11 -21 24 -21 30 0 18 -56 66 -77 66 -28
0 -43 20 -43 55 0 27 -7 35 -54 64 -55 33 -76 65 -76 116 0 15 -14 32 -41 51
-45 31 -59 57 -59 110 0 42 -8 43 -44 5 -40 -41 -41 -88 -4 -158 23 -44 27
-63 22 -91 l-7 -35 -18 34 c-10 19 -15 44 -13 55 3 12 -4 40 -15 62 -26 52
-27 102 -1 135 24 30 26 60 5 77 -8 7 -17 28 -21 49 -10 62 -15 71 -39 77 -14
3 -28 17 -34 35 -5 16 -15 29 -20 29 -6 0 -11 15 -11 33 0 29 -5 34 -53 57
l-52 25 -3 57 c-3 54 -5 58 -37 73 -48 23 -63 44 -72 100 -8 45 -13 52 -51 73
-27 15 -44 32 -47 48 -3 13 -7 35 -10 49 -3 16 -19 32 -43 44 -44 23 -77 56
-91 93 -6 15 -25 35 -43 44 -18 9 -49 36 -69 58 -21 23 -62 54 -92 69 -46 22
-57 33 -67 64 -16 49 -17 50 -70 58 -64 9 -76 19 -90 70 -11 41 -16 45 -44 46
-70 2 -90 18 -110 84 -7 24 25 42 73 41 38 -1 35 18 -4 22 -16 2 -38 10 -49
18 -11 7 -30 11 -43 8 -14 -4 -23 -2 -23 5 0 6 -5 11 -11 11 -6 0 -9 -7 -5
-15 6 -17 -9 -21 -20 -4 -3 6 -17 9 -30 6 -18 -3 -24 0 -24 13 0 18 -23 33
-34 23 -3 -4 -6 -15 -6 -25 0 -22 -27 -24 -50 -3 -14 12 -22 12 -62 0 -43 -13
-46 -12 -51 6 -8 29 -25 23 -33 -13 -7 -32 -8 -33 -15 -8 -4 14 -7 19 -8 13
-1 -7 -10 -13 -22 -13 -16 0 -19 -5 -15 -22 3 -13 3 -17 0 -10 -3 6 -12 12
-20 12 -11 0 -12 -4 -4 -19 14 -27 13 -36 -4 -22 -11 9 -16 9 -22 0 -4 -7 -2
-15 4 -17 7 -2 12 -8 12 -14 0 -6 -7 -8 -15 -4 -10 4 -15 -1 -15 -14 0 -12 -7
-20 -16 -20 -11 0 -13 -6 -9 -19 5 -15 1 -19 -20 -17 -15 0 -23 6 -21 13 3 7
1 15 -4 18 -6 4 -10 -5 -10 -18 0 -19 -7 -27 -27 -31 -14 -4 -29 -4 -32 1 -12
16 -51 33 -51 23 0 -6 7 -13 15 -16 8 -4 15 -11 15 -16 0 -6 -7 -7 -16 -4 -11
4 -25 -3 -41 -21 -21 -22 -28 -25 -44 -15 -15 10 -19 9 -19 -3 0 -8 7 -15 15
-15 8 0 15 -7 15 -15 0 -8 -4 -15 -9 -15 -5 0 -11 7 -15 15 -8 22 -26 18 -26
-5 0 -24 -13 -26 -30 -5 -19 23 -27 18 -34 -20 -7 -35 -19 -44 -31 -25 -3 6
-13 10 -20 10 -11 0 -12 -6 -5 -24 10 -26 -3 -46 -31 -46 -18 0 -34 -52 -18
-58 5 -2 9 -8 9 -13 0 -6 -9 -5 -21 1 -29 16 -63 -13 -48 -41 14 -26 2 -44
-19 -27 -13 11 -14 11 -10 -2 7 -20 -9 -50 -27 -50 -8 0 -15 -7 -15 -15 0 -8
-5 -15 -11 -15 -7 0 -9 -9 -5 -24 4 -18 0 -29 -19 -43 -17 -13 -25 -31 -29
-61 -3 -33 -12 -51 -35 -71 -17 -15 -31 -32 -31 -37 0 -5 -14 -22 -30 -38 -16
-16 -32 -37 -35 -47 -4 -11 -17 -22 -31 -25 -18 -5 -24 -13 -24 -35 0 -18 -8
-34 -20 -41 -11 -7 -20 -20 -20 -29 0 -10 -13 -21 -29 -27 -38 -13 -80 -60
-74 -82 5 -18 -60 -80 -84 -80 -7 0 -24 -17 -37 -38 -23 -36 -52 -64 -110
-104 -13 -10 -30 -35 -36 -55 -25 -76 -41 -100 -79 -118 -34 -15 -39 -22 -45
-61 -8 -62 -22 -83 -63 -100 l-35 -15 5 -57 c3 -31 8 -66 12 -77 5 -17 -6 -29
-57 -67 -89 -65 -158 -136 -165 -169 -6 -29 -42 -49 -89 -49 -30 0 -30 -11 -1
-29 21 -14 20 -15 -28 -28 -107 -29 -239 -53 -257 -47 -36 11 -11 29 54 40 43
7 73 18 89 33 13 13 39 34 57 48 17 14 32 32 32 39 0 8 11 19 25 26 13 6 29
23 35 37 24 56 36 71 65 85 30 15 113 93 104 99 -7 5 -149 63 -224 92 -38 15
-102 43 -142 61 -39 19 -75 34 -81 34 -10 0 -84 33 -112 50 -8 5 -23 11 -32
14 -21 6 -24 26 -4 26 7 0 27 7 42 15 16 8 37 15 46 15 9 0 20 5 23 10 3 6 14
10 23 10 9 0 39 9 67 19 103 39 250 75 387 96 21 3 40 10 43 16 9 13 -77 95
-141 136 -28 18 -61 44 -74 58 -13 14 -28 25 -33 25 -5 0 -32 19 -60 43 -29
24 -71 55 -94 70 -24 15 -43 32 -43 38 0 5 -13 15 -29 20 -38 13 -72 83 -50
104 20 19 125 21 175 2 23 -9 83 -23 135 -32 51 -9 97 -19 102 -22 14 -9 157
-43 179 -43 27 0 20 24 -42 157 -28 58 -50 114 -50 126 0 11 -12 33 -26 48
-26 27 -149 228 -159 260 -10 30 21 28 101 -7 44 -19 95 -39 114 -45 19 -6 55
-24 80 -39 25 -16 59 -32 75 -36 17 -4 51 -17 77 -30 26 -13 52 -24 57 -24 6
0 27 -11 47 -25 20 -14 41 -25 46 -25 15 0 -9 203 -49 400 -23 114 -31 178
-32 253 -1 58 1 67 17 67 10 0 26 -6 37 -14 11 -7 61 -35 110 -61 50 -27 123
-71 163 -99 40 -28 94 -62 118 -75 25 -14 59 -37 74 -51 38 -35 80 -63 87 -56
13 12 0 314 -24 556 -11 118 -10 145 8 145 15 0 167 -140 260 -241 43 -46 195
-184 202 -184 3 0 11 26 17 58 7 31 19 73 27 92 8 19 20 67 28 107 8 39 21 85
29 102 9 16 16 43 16 60 0 16 4 32 9 35 5 3 12 22 16 42 9 50 51 144 65 144
34 0 110 -93 110 -135 0 -9 7 -31 15 -48 17 -39 70 -200 79 -244 5 -19 3 -34
-4 -38 -8 -5 -5 -13 9 -26 12 -11 21 -31 21 -44 0 -62 48 -24 136 105 44 65
157 226 171 245 5 6 13 21 19 35 13 27 83 125 110 153 21 20 34 21 58 4z
m-347 -1038 c24 -15 33 -27 30 -39 -7 -27 9 -48 25 -32 17 17 28 15 28 -6 0
-19 54 -65 77 -65 7 0 15 -8 18 -18 3 -10 15 -21 26 -24 31 -10 22 -20 -31
-37 -50 -16 -72 -10 -52 15 7 8 6 22 -3 42 -11 25 -14 27 -20 12 -4 -9 -5 -29
-2 -43 3 -16 0 -23 -7 -21 -6 2 -10 24 -9 51 1 32 -2 46 -10 43 -7 -2 -12 -17
-12 -33 0 -26 -3 -29 -34 -30 -29 0 -36 -5 -44 -28 -9 -27 -12 -28 -59 -23
-28 4 -59 1 -73 -5 -19 -8 -28 -8 -40 2 -8 7 -19 10 -22 6 -4 -4 -2 -11 6 -15
20 -13 -16 -23 -39 -11 -28 15 -36 13 -72 -20 -53 -49 -92 -37 -61 19 19 33
33 40 33 16 0 -8 4 -15 8 -15 18 0 20 12 6 38 -12 24 -12 27 5 34 24 9 105 88
114 111 4 10 15 17 24 16 46 -4 68 4 104 41 22 22 42 40 46 40 3 0 21 -10 40
-21z m-608 -36 c4 -8 5 -27 3 -43 -4 -25 -9 -29 -40 -32 -32 -3 -37 -7 -45
-38 -13 -50 -23 -59 -75 -62 l-47 -3 -10 -50 c-10 -48 -13 -50 -45 -53 -52 -4
-64 8 -45 44 20 39 19 49 -7 62 -23 11 -22 11 2 6 34 -7 69 7 105 44 16 16 35
27 42 25 7 -3 13 -1 13 5 0 5 -11 13 -25 16 -14 4 -25 12 -25 19 0 20 30 58
54 67 36 13 136 8 145 -7z m794 -412 c23 -19 127 -23 134 -5 5 14 80 7 100 -8
21 -17 83 -27 83 -14 0 8 3 8 8 0 7 -10 46 -28 49 -22 1 2 12 -7 25 -20 14
-12 27 -19 31 -16 8 9 57 -23 57 -37 0 -6 -5 -7 -10 -4 -6 4 -18 4 -26 1 -13
-5 -12 -9 7 -25 l24 -19 -28 -26 c-31 -29 -42 -32 -54 -13 -9 14 -41 35 -65
43 -11 4 -18 16 -18 31 0 34 -16 20 -24 -21 -10 -50 -27 -61 -65 -38 -23 14
-28 21 -19 30 8 8 8 15 -2 27 -18 21 -29 19 -40 -9 -5 -14 -19 -30 -32 -37
-13 -7 -27 -18 -33 -25 -5 -6 -27 -15 -48 -18 -36 -7 -38 -6 -43 24 -6 27 -34
44 -34 20 0 -5 -18 -10 -40 -10 -22 0 -40 -4 -40 -10 0 -5 -6 -10 -13 -10 -7
0 -18 -9 -25 -20 -7 -11 -17 -20 -22 -20 -6 0 -19 9 -30 20 -11 11 -20 15 -20
10 0 -7 -6 -7 -20 0 -21 11 -54 0 -75 -26 -21 -26 -52 -26 -81 1 -33 31 -44
31 -79 3 -20 -15 -30 -18 -33 -10 -2 7 -8 12 -14 12 -5 0 -7 -8 -3 -19 7 -24
-23 -37 -39 -17 -6 8 -25 17 -42 21 -27 5 -38 1 -67 -24 -42 -38 -47 -38 -86
-5 -33 27 -35 27 -94 -20 -29 -23 -40 -27 -46 -17 -6 10 -11 9 -24 -3 -20 -20
-46 -21 -53 -1 -9 23 -27 18 -59 -15 -19 -20 -32 -27 -39 -20 -17 17 -43 11
-67 -14 -13 -14 -26 -23 -30 -20 -6 3 15 95 26 114 12 19 33 11 28 -10 -10
-36 6 -21 28 28 25 55 46 82 66 82 7 0 13 -8 14 -17 0 -15 3 -14 16 5 8 12 24
22 35 22 10 0 21 7 24 15 4 8 14 15 25 15 17 0 46 36 41 53 -4 14 18 7 37 -12
18 -18 23 -18 58 -6 21 8 50 14 64 15 15 0 38 9 52 20 22 17 35 20 76 14 61
-8 98 0 103 23 2 13 16 18 62 20 32 1 67 -2 77 -8 13 -6 25 -6 39 3 17 11 22
10 30 -2 6 -9 22 -13 48 -11 33 2 40 -1 39 -16 -1 -10 8 -22 21 -28 12 -5 22
-13 22 -17 0 -5 6 -8 13 -8 9 0 12 9 9 29 -3 23 -8 28 -25 24 -18 -5 -16 -1 9
18 17 13 38 31 47 41 19 18 52 14 80 -11z m47 -505 c16 -20 30 -20 30 -2 0 12
7 12 37 4 28 -8 43 -7 62 4 27 15 114 17 144 4 12 -6 17 -4 17 8 0 24 41 20
47 -4 6 -21 19 -27 25 -9 6 17 109 15 122 -3 17 -23 57 -33 67 -17 6 11 11 11
20 2 9 -9 9 -16 -1 -28 -15 -18 0 -21 18 -3 9 9 16 7 32 -7 11 -10 20 -14 20
-9 0 5 5 2 10 -6 9 -13 12 -13 21 3 13 22 29 22 29 0 0 -9 3 -13 7 -9 4 4 12
-14 18 -41 7 -34 15 -49 29 -51 14 -3 17 0 12 12 -3 9 -9 23 -12 31 -12 30 12
13 49 -34 28 -36 44 -47 58 -44 13 4 19 0 19 -11 0 -9 4 -16 10 -16 18 0 -3
35 -42 68 -21 19 -36 38 -33 43 9 14 58 -16 91 -54 16 -19 41 -49 57 -67 24
-29 31 -49 30 -87 0 -7 8 -15 18 -18 17 -6 16 -9 -10 -31 -16 -13 -32 -24 -37
-24 -4 0 -20 15 -35 33 l-27 32 -24 -22 c-32 -30 -40 -29 -66 7 -24 32 -49 39
-58 15 -4 -8 -12 -15 -20 -15 -7 0 -17 -7 -22 -16 -8 -15 -11 -15 -33 -1 -44
29 -94 31 -133 7 -35 -21 -36 -21 -66 -4 -16 10 -30 22 -30 26 0 8 -49 31 -60
28 -3 -1 -4 -8 -2 -16 2 -8 -4 -14 -12 -14 -10 0 -13 6 -9 18 6 14 4 15 -9 4
-9 -7 -14 -21 -11 -31 9 -36 -27 -33 -60 4 -38 43 -53 44 -95 5 -42 -38 -58
-38 -104 0 -40 33 -58 31 -88 -5 -28 -34 -60 -38 -96 -10 -43 33 -57 32 -103
-10 -21 -19 -42 -35 -45 -35 -4 0 -27 14 -51 30 -24 17 -48 30 -52 30 -5 0
-24 -16 -43 -35 -40 -42 -62 -44 -106 -10 -39 30 -67 32 -94 5 -28 -28 -42
-25 -77 15 -17 19 -38 35 -45 35 -8 0 -29 -16 -48 -35 -19 -19 -38 -35 -43
-35 -5 0 -26 14 -47 30 -27 21 -49 30 -76 30 -29 0 -35 -3 -26 -12 9 -9 8 -16
-5 -30 -22 -25 -50 -23 -85 7 -31 26 -62 32 -73 15 -3 -6 -18 -7 -32 -4 -23 6
-25 4 -20 -15 8 -33 -8 -33 -32 -1 -28 39 -47 38 -93 -7 -32 -31 -39 -34 -53
-23 -9 7 -14 19 -11 27 4 9 -3 13 -19 13 -31 0 -76 -20 -69 -31 2 -5 -5 -18
-17 -30 l-21 -21 -19 21 c-25 27 -33 26 -58 -5 l-20 -26 -30 21 c-16 12 -34
21 -40 21 -20 0 -11 20 14 32 14 6 25 15 25 20 0 4 6 8 14 8 9 0 13 12 12 36
-1 23 4 39 13 42 11 3 12 -2 7 -23 -4 -17 -3 -24 4 -20 5 3 10 15 10 25 0 12
13 25 33 35 36 17 67 61 67 94 0 23 33 61 53 61 8 0 9 -3 1 -8 -13 -8 -34 -46
-34 -61 0 -18 17 -12 48 17 81 74 138 98 213 89 36 -5 49 -2 53 9 4 9 13 13
29 9 12 -3 34 -2 48 3 16 7 31 6 43 0 12 -6 22 -6 31 2 12 10 18 6 30 -21 9
-21 14 -27 15 -15 0 12 5 16 16 12 20 -8 54 11 54 29 0 12 8 14 39 9 22 -4 47
-1 61 6 28 15 37 6 16 -16 -9 -9 -15 -18 -12 -21 5 -5 57 26 67 40 3 4 12 5
20 2 9 -3 42 1 74 10 78 20 85 19 82 -7 -2 -18 4 -24 26 -26 25 -3 28 0 25 20
-3 20 1 23 30 24 18 1 35 4 39 7 3 4 11 2 18 -3 7 -6 24 -6 46 0 22 7 53 6 91
0 42 -8 64 -8 79 0 11 7 31 9 43 6 13 -3 31 1 42 8 20 15 41 9 64 -18z m-56
-715 c27 -6 55 -4 92 6 57 17 90 12 80 -12 -3 -8 -1 -25 4 -37 l9 -23 0 23 c1
15 7 22 20 22 11 0 23 5 27 11 4 8 9 8 17 0 6 -6 18 -11 27 -11 11 1 10 3 -5
12 -19 11 -19 11 0 19 27 10 86 0 107 -18 20 -17 77 -9 93 14 9 12 20 10 73
-13 52 -22 64 -24 78 -13 24 20 104 15 144 -9 33 -21 34 -21 47 -2 19 27 33
25 70 -10 38 -35 52 -37 86 -10 35 27 53 25 86 -11 23 -24 33 -29 55 -23 14 3
31 14 36 23 9 14 10 13 8 -4 -3 -16 5 -21 47 -29 28 -5 54 -15 58 -22 4 -8 18
-14 31 -14 16 0 34 -17 65 -61 23 -33 49 -63 57 -66 8 -3 14 -10 14 -17 0 -6
12 -22 25 -35 28 -26 33 -17 9 17 -19 27 -14 36 16 27 29 -9 49 -43 52 -93 2
-27 8 -44 18 -47 8 -3 21 -14 28 -25 10 -17 10 -20 -3 -20 -23 0 -18 -27 8
-35 l22 -7 -23 -6 c-13 -4 -23 -9 -23 -12 -1 -18 27 -70 50 -95 15 -16 38 -45
51 -63 12 -19 33 -45 46 -59 26 -28 30 -43 13 -43 -11 0 -9 -41 3 -50 3 -3 13
-38 21 -78 9 -40 20 -78 25 -85 14 -17 3 -75 -16 -82 -23 -9 -31 5 -34 57 -2
25 -7 44 -11 41 -4 -3 -15 1 -23 8 -8 6 -17 9 -21 5 -9 -9 -53 34 -53 53 0 9
-5 33 -11 54 -9 32 -14 37 -39 37 -25 0 -30 4 -30 25 0 15 -5 24 -12 22 -7 -1
-12 4 -10 11 1 7 -2 30 -8 51 -8 33 -15 38 -55 49 -41 11 -45 15 -45 42 0 16
5 30 10 30 6 0 10 8 10 17 0 13 -3 14 -12 5 -17 -17 -25 -15 -31 9 -5 19 -2
21 24 17 16 -3 29 -2 29 1 0 16 -40 28 -78 25 -34 -3 -42 -1 -42 13 0 13 -3
14 -12 5 -19 -19 -28 -14 -39 18 -6 17 -17 30 -24 30 -7 0 -12 8 -11 18 1 13
-8 18 -43 20 -32 2 -49 10 -63 27 -10 13 -25 22 -32 19 -9 -3 -17 3 -21 15 -6
21 -25 29 -25 11 0 -5 -4 -10 -10 -10 -5 0 -10 7 -10 15 0 15 -6 18 -50 19
-19 1 -30 11 -45 44 -12 23 -29 50 -39 60 -17 16 -18 16 -12 -5 5 -14 2 -25
-7 -30 -8 -4 -16 -14 -18 -21 -3 -10 -12 -8 -32 8 -24 19 -31 21 -57 10 -16
-7 -34 -9 -39 -5 -6 3 -11 2 -11 -4 0 -5 -7 -17 -16 -26 -15 -15 -19 -14 -45
11 -27 26 -30 27 -46 11 -16 -15 -16 -18 0 -35 9 -10 17 -23 17 -28 0 -12 -40
-37 -47 -30 -3 3 1 8 10 12 18 7 11 34 -9 34 -8 0 -14 7 -14 17 0 14 -2 15
-17 1 -18 -16 -31 -15 -69 4 -23 11 -64 -4 -64 -23 0 -6 -7 -9 -15 -5 -8 3
-15 4 -15 2 0 -3 -3 -13 -6 -23 -5 -15 -4 -15 5 -3 9 13 11 12 11 -6 0 -30
-30 -40 -50 -16 -8 11 -32 22 -52 25 -31 5 -40 2 -48 -14 -6 -11 -15 -17 -21
-14 -5 4 -9 1 -9 -4 0 -6 5 -11 10 -11 18 0 10 -22 -10 -27 -11 -3 -20 -11
-20 -19 0 -10 -6 -11 -24 -4 -13 5 -27 6 -30 3 -3 -4 -6 6 -6 21 0 26 -2 27
-37 20 -38 -6 -67 -30 -57 -45 3 -5 -2 -6 -10 -3 -9 3 -17 -2 -20 -14 -12 -36
-34 -47 -54 -28 -26 23 -39 20 -79 -14 -38 -34 -57 -39 -48 -11 11 35 -18 43
-58 14 -36 -25 -48 -55 -27 -68 6 -4 10 -12 9 -18 -4 -32 1 -36 21 -19 19 16
19 18 3 29 -23 17 -7 30 18 15 11 -7 24 -10 29 -7 6 4 7 -1 3 -11 -5 -13 -3
-16 10 -11 9 3 17 3 17 -1 0 -4 20 -8 45 -10 26 -1 45 2 45 8 0 15 48 31 75
24 13 -3 26 -15 29 -27 3 -12 8 -18 12 -14 4 3 -1 18 -10 31 -8 14 -13 32 -10
41 4 9 -1 21 -11 29 -14 10 -15 15 -5 21 8 5 18 1 27 -11 11 -15 15 -16 22 -5
14 23 31 3 24 -30 -5 -25 -3 -28 11 -23 10 4 25 -1 35 -10 19 -18 39 -7 26 14
-3 6 -1 10 4 10 6 0 11 9 11 20 0 23 0 23 35 10 15 -6 32 -7 38 -3 13 8 19 9
60 11 16 1 25 6 22 12 -3 6 2 10 12 10 23 0 73 22 73 32 0 4 7 5 15 2 9 -4 15
0 15 10 0 12 11 16 43 17 23 1 34 3 25 6 -19 5 -25 33 -8 33 6 0 10 -4 10 -9
0 -14 51 -23 65 -11 8 7 22 6 46 -3 20 -8 67 -12 117 -11 45 1 84 -2 87 -7 3
-4 12 -6 20 -2 9 3 15 -1 15 -9 0 -7 30 -27 68 -43 65 -28 90 -44 171 -112 21
-18 42 -33 47 -33 5 0 19 -11 31 -23 12 -13 38 -35 57 -48 20 -13 36 -27 36
-30 0 -14 59 -69 74 -69 9 0 16 -8 16 -19 0 -10 7 -21 15 -25 8 -3 20 -16 26
-30 11 -24 49 -43 49 -25 0 5 -6 9 -13 9 -7 0 -22 14 -32 31 -31 50 -48 75
-73 108 l-23 31 21 0 c13 0 24 -8 27 -20 3 -11 11 -20 19 -20 7 0 16 -11 20
-25 3 -14 20 -38 38 -53 17 -15 38 -40 46 -57 8 -16 28 -43 43 -60 15 -16 30
-42 34 -57 3 -15 18 -40 34 -55 30 -30 37 -59 17 -65 -8 -3 1 -18 23 -39 21
-19 46 -52 58 -74 48 -92 86 -139 119 -149 20 -6 36 -6 42 0 14 14 13 179 0
244 -13 61 -17 91 -26 168 -5 42 -4 52 9 52 23 0 43 -28 29 -42 -16 -16 -15
-43 2 -57 7 -6 11 -21 9 -34 -3 -14 2 -29 11 -36 9 -8 16 -29 16 -50 0 -20 6
-48 14 -63 12 -23 12 -29 -2 -49 -11 -16 -12 -26 -5 -38 20 -33 -7 -154 -58
-253 -5 -10 -9 -25 -9 -33 0 -8 -7 -15 -16 -15 -11 0 -14 -6 -9 -20 4 -13 1
-22 -8 -26 -8 -3 -18 -25 -22 -49 -3 -25 -10 -47 -15 -50 -5 -3 -7 -12 -3 -20
3 -9 -1 -15 -10 -15 -10 0 -13 -7 -10 -19 5 -20 -24 -70 -41 -71 -4 0 -5 12
-2 28 4 15 8 36 11 47 2 11 23 66 46 122 23 57 39 106 35 110 -4 4 -10 2 -14
-4 -4 -6 -22 -14 -39 -18 -32 -6 -40 2 -34 38 2 13 -43 7 -63 -8 -11 -8 -14
-15 -7 -15 8 0 10 -11 6 -37 l-6 -38 21 24 c24 27 37 23 21 -7 -15 -28 -14
-52 3 -52 21 0 27 -80 6 -81 -10 0 -11 -2 -3 -6 14 -5 8 -78 -7 -98 -5 -5 -11
-49 -15 -97 -6 -75 -5 -88 8 -88 8 0 20 14 26 31 12 35 28 34 49 -2 14 -23 14
-23 -3 -4 -16 19 -17 19 -28 2 -7 -10 -20 -28 -29 -39 -19 -23 -33 -97 -24
-131 5 -22 -13 -77 -26 -77 -3 0 -9 17 -13 38 -3 20 -10 44 -15 52 -13 21 -13
-64 0 -90 6 -11 15 -29 21 -41 6 -12 14 -51 19 -88 5 -36 12 -78 16 -93 5 -22
3 -28 -10 -28 -18 0 -20 -12 -7 -57 7 -24 6 -35 -5 -43 -7 -7 -16 -28 -20 -49
-10 -60 -14 -69 -34 -74 -11 -3 -24 -16 -29 -30 -5 -14 -13 -26 -18 -28 -10
-5 -121 -132 -153 -176 -27 -37 -37 -40 -56 -16 -11 17 -14 16 -34 -10 -12
-15 -26 -25 -31 -22 -5 4 -9 -1 -9 -10 0 -17 -38 -35 -76 -35 -15 0 -24 -6
-24 -15 0 -8 5 -15 11 -15 5 0 7 -5 3 -11 -4 -8 -9 -7 -15 2 -7 11 -13 9 -29
-11 -31 -40 -32 -38 98 -95 46 -20 102 -38 125 -38 35 -2 42 -5 42 -22 0 -16
6 -20 30 -19 34 1 45 -10 45 -47 0 -17 13 -37 40 -62 22 -19 40 -43 40 -51 0
-9 17 -24 38 -35 22 -11 46 -31 55 -45 9 -13 29 -36 44 -51 63 -59 83 -81 83
-92 0 -7 9 -27 20 -45 11 -18 20 -39 20 -46 0 -17 49 -70 71 -77 13 -4 19 -21
24 -68 3 -34 9 -70 12 -81 3 -12 1 -16 -6 -12 -22 14 -30 -5 -15 -39 16 -39
18 -59 5 -51 -14 9 -11 -75 3 -96 8 -11 12 -28 9 -38 -3 -10 1 -35 7 -56 11
-33 11 -39 -5 -50 -10 -8 -21 -11 -26 -9 -4 3 -10 1 -14 -5 -3 -5 0 -10 8 -10
8 0 17 -7 21 -15 7 -20 -18 -20 -34 0 -11 13 -14 13 -26 -2 -7 -10 -14 -35
-14 -56 0 -35 2 -37 20 -27 16 9 22 8 26 -5 5 -12 10 -13 20 -4 11 9 12 3 8
-28 -3 -21 -12 -52 -20 -70 -8 -17 -14 -40 -14 -50 0 -10 -5 -24 -11 -30 -7
-7 -11 -34 -11 -62 1 -27 -3 -53 -8 -56 -6 -3 -10 1 -10 9 0 22 -18 29 -84 37
-32 4 -63 13 -67 21 -6 9 -11 10 -16 2 -10 -13 -107 -4 -208 20 -38 8 -85 16
-102 16 -31 0 -33 2 -33 35 0 26 -4 33 -14 29 -12 -5 -13 -11 -4 -30 6 -13 9
-26 6 -29 -11 -11 -102 9 -120 27 -10 10 -18 13 -18 7 0 -12 -53 -8 -145 9
-127 24 -374 65 -410 68 -22 1 -53 8 -70 15 -16 6 -42 11 -57 10 l-27 -2 16
41 c14 35 18 39 24 24 6 -16 8 -14 8 7 1 17 13 38 35 57 19 16 37 44 41 61 8
36 37 69 79 91 16 8 31 23 34 33 2 9 11 17 19 17 11 0 11 4 3 20 -9 16 -8 22
5 26 12 5 13 9 4 20 -16 19 -6 27 35 28 53 2 69 22 62 76 -7 58 3 74 48 73 47
-1 57 14 54 83 -3 53 -1 58 20 63 13 3 23 9 23 14 -2 22 0 27 13 27 8 0 23 14
34 31 16 26 18 38 10 61 -9 26 -7 32 26 64 41 39 41 41 22 63 -7 9 -17 26 -20
38 -6 20 -2 24 38 34 43 11 52 21 47 52 -1 5 13 8 31 7 86 -5 89 -3 86 38 -4
45 0 45 -205 8 -130 -23 -146 -24 -177 -11 -43 18 -54 19 -38 3 18 -18 14 -60
-8 -88 -11 -14 -20 -32 -20 -41 0 -29 -33 -114 -51 -135 -11 -11 -19 -30 -19
-42 0 -12 -4 -30 -9 -40 -6 -9 -12 -29 -15 -44 -4 -18 -13 -28 -28 -30 -12 -2
-27 -12 -33 -23 -5 -11 -20 -35 -32 -52 -13 -17 -23 -36 -23 -42 0 -14 -13
-14 -28 1 -9 9 -12 5 -13 -17 -1 -24 -3 -26 -6 -7 -2 12 -9 20 -14 16 -5 -3
-7 -10 -4 -15 4 -5 1 -25 -6 -44 -10 -26 -10 -38 -2 -46 9 -9 6 -20 -13 -44
-13 -17 -24 -39 -24 -48 0 -9 -15 -27 -33 -41 -21 -16 -39 -44 -51 -76 -10
-27 -24 -50 -31 -50 -8 0 -17 -10 -21 -22 -3 -12 -19 -39 -35 -61 -16 -22 -29
-49 -29 -61 0 -28 -20 -56 -27 -38 -2 6 -15 12 -28 12 -18 0 -22 -4 -18 -20 6
-23 -25 -102 -37 -95 -4 2 -5 -7 -2 -21 6 -34 -25 -69 -47 -52 -13 10 -14 10
-4 -2 9 -9 9 -19 2 -33 -6 -10 -9 -37 -7 -60 3 -32 -1 -46 -19 -65 -12 -13
-20 -28 -17 -33 3 -5 -5 -9 -18 -9 -18 0 -20 -2 -8 -10 13 -8 13 -13 2 -31 -8
-12 -15 -40 -17 -64 -5 -64 -17 -119 -27 -132 -7 -8 -17 -9 -34 -3 -15 6 -24
6 -24 0 0 -6 6 -10 14 -10 17 0 26 -23 24 -67 -1 -28 -3 -31 -20 -22 -15 8
-18 6 -18 -11 0 -11 7 -23 16 -27 13 -5 13 -7 2 -14 -9 -7 -10 -11 -2 -16 8
-5 11 -38 9 -93 -1 -47 1 -89 4 -95 3 -5 6 -14 6 -18 0 -5 20 -18 45 -31 34
-17 45 -28 45 -47 0 -15 7 -25 18 -27 9 -2 17 1 17 7 0 7 9 6 23 -4 21 -13 28
-13 66 2 37 15 52 15 116 4 69 -11 76 -11 115 9 27 14 40 26 38 38 -3 14 5 17
43 15 26 0 56 -6 67 -12 18 -10 21 -9 15 4 -7 20 27 85 45 85 18 0 42 -25 42
-44 0 -11 -9 -16 -26 -16 -20 0 -25 -4 -20 -16 3 -8 -1 -28 -9 -45 -9 -16 -13
-29 -10 -29 6 0 -30 -51 -65 -92 -8 -10 -22 -18 -32 -18 -9 0 -18 -9 -20 -21
-3 -24 -113 -89 -151 -89 -12 0 -31 -7 -41 -15 -11 -8 -30 -15 -42 -15 -12 0
-37 -6 -56 -14 -38 -16 -138 -24 -156 -12 -6 4 -20 3 -30 -3 -21 -11 -154 20
-181 42 -9 7 -29 18 -44 25 -31 13 -117 76 -160 116 -29 27 -66 99 -67 129 0
9 -5 17 -10 17 -6 0 -8 10 -5 23 4 15 1 28 -9 37 -14 11 -16 10 -15 -6 4 -35
-1 -52 -15 -57 -11 -4 -13 -1 -9 10 4 11 2 14 -5 9 -7 -4 -12 -15 -12 -24 0
-9 -14 -44 -30 -76 -17 -32 -30 -66 -30 -74 0 -9 15 -29 33 -46 19 -17 39 -41
46 -53 6 -13 17 -23 24 -23 7 0 31 -16 53 -37 21 -20 50 -37 63 -37 24 -2 51
-30 51 -53 0 -7 7 -13 16 -13 8 0 12 -5 9 -10 -11 -19 25 -23 39 -5 12 17 17
16 87 -8 41 -13 88 -25 106 -26 18 -1 43 -5 55 -9 33 -12 270 4 350 22 67 16
98 14 98 -8 -1 -26 -33 -48 -75 -50 -12 -1 -27 -14 -37 -35 -31 -62 -40 -66
-87 -39 l-42 23 -25 -30 c-13 -16 -24 -36 -24 -42 0 -19 -16 -16 -58 11 l-38
24 -40 -24 c-46 -28 -58 -30 -50 -8 4 9 -1 27 -9 40 -14 21 -21 23 -58 17 -39
-6 -41 -5 -28 11 16 19 6 35 -11 18 -24 -24 -88 -4 -88 27 0 9 -11 11 -37 6
-104 -17 -100 -18 -120 31 -17 41 -20 44 -56 44 -31 0 -40 4 -44 20 -5 19 -6
19 -19 3 -12 -17 -13 -17 -19 2 -18 57 -36 85 -54 85 -11 0 -21 9 -25 23 l-7
22 -10 -24 -10 -25 -33 38 c-30 35 -35 37 -54 25 -30 -19 -62 11 -63 60 -1 35
-16 97 -18 75 -2 -20 -39 -23 -73 -5 -28 14 -34 23 -43 70 -9 47 -15 57 -45
74 -46 25 -50 33 -50 94 0 62 -15 99 -42 106 -11 3 -18 12 -16 19 3 7 -1 18
-8 23 -10 8 -11 20 -3 54 9 40 8 45 -16 67 -26 24 -34 71 -14 91 7 7 3 19 -15
41 -28 32 -33 61 -15 79 15 15 29 93 16 93 -5 0 -7 9 -4 20 4 14 0 20 -11 20
-12 0 -13 3 -4 12 7 7 12 21 12 33 0 11 11 32 23 45 26 28 44 80 27 80 -5 0
-10 -10 -11 -22 0 -18 -5 -15 -21 18 l-20 41 27 41 c15 23 34 42 41 42 8 0 14
5 14 10 0 15 -23 54 -37 63 -7 4 -13 17 -13 28 0 30 32 80 47 75 7 -3 13 -1
13 4 0 6 -7 10 -15 10 -20 0 -19 6 5 46 18 27 20 45 16 112 -4 89 3 114 28 93
13 -11 16 -11 16 3 0 9 -5 16 -11 16 -7 0 -9 10 -5 26 4 16 0 46 -10 75 l-18
49 25 27 c20 22 24 38 23 76 -1 26 2 50 8 53 5 3 5 11 -2 19 -5 7 -9 21 -8 31
5 34 -13 174 -23 180 -13 8 -11 58 3 72 20 20 -1 26 -22 7 -11 -10 -20 -14
-20 -9 0 6 -22 18 -50 28 -55 20 -100 65 -100 101 0 12 7 39 15 58 9 23 11 38
5 42 -6 3 -10 15 -10 25 0 14 5 18 16 13 12 -4 15 -2 12 8 -3 8 -12 12 -19 10
-8 -2 -38 -6 -66 -9 -42 -3 -54 -1 -59 12 -3 9 -11 16 -17 16 -8 0 -8 -3 0
-11 18 -18 3 -39 -26 -39 -20 0 -38 13 -70 50 -37 44 -45 48 -63 39 -30 -16
-65 3 -73 40 -8 35 -29 56 -50 47 -9 -3 -15 0 -15 9 0 8 6 15 13 16 10 0 10 2
0 6 -7 2 -13 13 -13 24 0 10 -7 19 -15 19 -8 0 -19 9 -25 20 -15 27 -42 26
-38 -2 2 -11 -3 -23 -9 -25 -7 -3 -13 3 -13 14 -1 28 -43 70 -71 69 -20 -1
-28 9 -48 52 -26 54 -45 66 -56 33 -6 -19 64 -183 83 -195 6 -3 13 -19 17 -35
3 -16 13 -35 21 -42 8 -6 14 -15 14 -20 0 -12 -56 -40 -64 -32 -3 4 -6 -3 -6
-15 0 -11 -4 -24 -10 -27 -5 -3 -10 2 -10 12 0 15 -2 16 -10 3 -5 -8 -12 -11
-16 -7 -4 4 -2 13 4 19 7 7 12 20 12 30 0 16 3 17 20 8 16 -8 20 -8 20 4 0 8
-4 18 -10 21 -5 3 -10 13 -10 22 0 9 -8 26 -18 37 -10 12 -24 41 -31 66 -7 25
-21 53 -31 62 -10 10 -16 25 -14 35 2 10 0 24 -5 32 -8 12 -12 12 -25 2 -11
-9 -16 -10 -16 -2 0 6 4 11 10 11 5 0 9 23 9 50 -1 35 -6 50 -15 50 -16 0 -17
9 -4 30 5 9 5 19 0 25 -5 7 -14 41 -19 77 -5 36 -13 74 -19 84 -5 11 -7 25 -5
31 3 7 -2 16 -11 19 -20 8 -21 24 -2 24 18 0 10 80 -10 96 -18 14 -18 28 0 44
14 11 12 40 -2 38 -36 -4 -41 13 -12 44 23 25 27 60 6 52 -20 -8 -28 12 -11
26 8 7 13 16 10 20 -3 5 -1 11 5 15 19 11 10 22 -17 21 -14 0 -28 5 -31 13 -3
9 0 11 9 6 8 -4 6 1 -5 11 -13 14 -20 15 -23 7 -7 -18 -33 -16 -33 2 0 20 -29
19 -36 0 -4 -8 -1 -21 5 -29 9 -11 8 -17 -4 -29 -13 -14 -12 -18 15 -41 17
-13 30 -32 30 -42 0 -15 2 -16 18 -2 11 11 24 13 37 8 11 -5 15 -9 9 -9 -15
-1 -38 -55 -26 -59 5 -1 8 -12 5 -23 -4 -14 -1 -18 9 -14 9 4 14 -1 14 -15 0
-11 -6 -20 -13 -20 -7 0 -13 -9 -13 -19 0 -34 -21 -35 -52 -2 -16 17 -33 31
-37 31 -17 0 -31 -28 -24 -46 7 -18 6 -18 -20 -1 -30 19 -41 22 -32 7 12 -19
-16 -40 -51 -40 -30 0 -34 -3 -34 -25 0 -18 -7 -26 -27 -31 -23 -6 -24 -8 -10
-19 18 -13 23 -35 7 -35 -5 0 -14 8 -19 18 -10 16 -13 16 -52 -5 -31 -17 -46
-20 -60 -12 -11 5 -24 7 -30 3 -6 -4 -15 0 -20 7 -7 11 -9 10 -9 -3 0 -10 5
-18 10 -18 6 0 10 -4 10 -10 0 -5 -11 -10 -24 -10 -13 0 -27 -7 -30 -17 -6
-14 -8 -14 -21 3 -12 16 -16 17 -24 5 -11 -18 -61 -6 -61 14 0 9 6 12 15 9 8
-4 15 -10 15 -15 0 -4 7 -6 16 -2 22 8 13 47 -12 51 -12 2 -28 -3 -35 -10 -15
-14 -92 -22 -84 -8 3 5 1 11 -5 15 -5 3 -10 -1 -10 -9 0 -9 -9 -16 -20 -16
-11 0 -20 -7 -20 -15 0 -8 -5 -15 -11 -15 -7 0 -22 -12 -34 -26 -25 -29 -39
-20 -29 21 7 28 24 34 24 8 0 -15 2 -14 14 3 13 17 12 20 -6 27 -37 13 -53 0
-56 -44 -2 -28 -10 -47 -25 -60 -29 -24 -37 -24 -37 3 0 21 0 21 -15 2 -15
-18 -15 -18 -13 6 3 21 8 24 31 22 18 -2 29 2 33 13 8 19 -24 47 -45 40 -8 -3
-11 0 -8 9 4 9 -4 21 -19 31 -23 15 -25 15 -34 -7 -9 -19 -10 -20 -7 -3 3 13
-5 27 -20 38 -22 17 -23 17 -23 -2 0 -14 -5 -19 -15 -15 -11 5 -12 10 -2 24 9
16 7 23 -17 44 -15 15 -24 31 -21 36 3 6 -3 10 -14 10 -12 0 -21 7 -21 15 0 8
-4 15 -10 15 -5 0 -10 6 -10 14 0 7 -16 24 -35 37 -19 13 -35 29 -35 36 0 6
-7 25 -15 42 -8 17 -22 45 -30 62 -8 17 -15 43 -15 59 0 16 -5 32 -10 35 -6 3
-7 17 -4 31 4 16 1 31 -10 43 -23 25 -24 163 -2 212 4 9 6 20 5 25 -6 25 36
134 51 134 6 0 10 9 10 20 0 12 7 32 16 45 9 13 12 30 8 36 -5 8 -1 11 13 7
17 -4 25 3 42 38 12 24 20 48 16 54 -3 6 1 7 10 4 9 -4 25 2 39 15 30 29 163
96 236 120 53 18 81 19 233 16 94 -3 190 -7 213 -11 l41 -6 1 38 c1 22 6 40
12 42 26 9 3 72 -26 72 -9 0 -10 -7 -1 -30 15 -38 3 -49 -22 -19 -11 13 -23
21 -27 16 -4 -4 1 -13 11 -21 10 -7 15 -18 11 -24 -10 -17 -26 -15 -26 3 0 8
-7 15 -15 15 -8 0 -15 9 -15 20 0 16 7 20 31 20 27 0 30 2 19 15 -10 12 -10
15 2 15 10 0 16 10 16 28 2 62 8 82 27 96 11 9 14 16 8 16 -7 0 -13 7 -13 15
0 8 -7 15 -15 15 -10 0 -14 -10 -14 -32 2 -52 -18 -91 -41 -85 -13 3 -20 0
-20 -9 0 -8 -6 -14 -13 -14 -7 0 -18 -9 -25 -20 -7 -11 -8 -20 -3 -20 6 0 14
7 19 16 12 22 26 1 17 -27 -5 -14 -10 -18 -17 -11 -6 6 -16 8 -23 6 -7 -3 -19
13 -29 38 -10 27 -19 39 -24 31 -5 -8 -19 -9 -47 -3 -22 5 -44 5 -50 1 -23
-18 -65 -22 -71 -6 -4 8 -12 15 -19 15 -7 0 -16 6 -19 13 -5 9 -7 9 -12 0 -3
-7 -11 -10 -19 -7 -7 3 -23 -4 -34 -15 -12 -12 -26 -21 -32 -21 -5 0 -7 -4 -4
-10 4 -6 -1 -7 -11 -3 -13 5 -16 3 -11 -10 8 -21 -12 -22 -27 -2 -6 8 -26 19
-44 24 -28 8 -36 6 -60 -14 -16 -15 -21 -24 -13 -25 8 0 20 8 27 17 7 10 16
15 20 10 4 -4 -1 -14 -12 -22 -17 -13 -17 -14 -1 -15 9 0 17 -4 17 -10 0 -6
-10 -5 -25 2 -21 10 -28 8 -40 -8 -8 -10 -15 -25 -15 -31 0 -7 -6 -13 -14 -13
-8 0 -16 6 -19 13 -3 8 -12 5 -29 -10 -15 -15 -28 -19 -34 -13 -12 12 -51 2
-58 -16 -3 -8 -1 -14 4 -14 6 0 10 -16 10 -35 0 -34 -12 -46 -25 -25 -10 17
-25 11 -25 -10 0 -11 -4 -20 -10 -20 -15 0 -12 26 5 40 8 7 12 16 9 21 -5 9
-84 8 -84 -2 0 -3 9 -24 20 -47 25 -51 25 -52 -1 -52 -16 0 -19 -4 -15 -16 6
-17 -19 -54 -36 -54 -4 0 -8 10 -8 22 0 29 -17 11 -22 -22 -2 -15 -9 -25 -18
-24 -12 1 -16 -10 -18 -43 -1 -32 2 -43 11 -40 6 2 11 16 10 31 -2 24 0 26 13
15 13 -10 17 -10 25 2 5 8 9 20 9 27 0 17 27 15 34 -4 4 -10 13 -13 25 -9 13
4 23 0 29 -11 6 -11 17 -15 31 -11 30 7 26 -5 -9 -32 -17 -12 -28 -26 -25 -31
3 -5 1 -11 -5 -15 -6 -4 -8 -10 -5 -15 2 -4 -8 -43 -23 -86 -23 -67 -30 -79
-47 -75 -17 3 -18 1 -5 -14 12 -14 12 -18 -1 -26 -10 -7 -5 -8 16 -4 17 3 24
2 18 -1 -7 -3 -13 -14 -13 -24 0 -29 -11 -50 -26 -50 -23 0 -16 -27 9 -34 22
-6 22 -7 3 -21 -17 -13 -17 -15 -3 -15 11 0 18 -12 22 -37 4 -21 13 -55 21
-76 18 -48 18 -47 -7 -47 -15 0 -19 -4 -15 -16 5 -14 1 -15 -30 -9 -27 5 -34
3 -28 -6 5 -8 3 -9 -7 -3 -21 13 -51 16 -44 4 10 -16 -7 -12 -27 7 -23 21 -33
11 -18 -17 9 -16 9 -25 1 -33 -6 -6 -11 -19 -11 -29 0 -20 20 -24 36 -8 7 7
19 6 37 -2 23 -11 27 -19 27 -58 0 -25 7 -54 15 -64 8 -11 15 -30 15 -42 0
-12 11 -29 25 -38 15 -10 25 -26 25 -40 0 -13 7 -29 15 -36 19 -16 19 -40 0
-40 -9 0 -15 9 -15 25 0 22 -3 25 -25 19 -21 -5 -25 -3 -25 14 0 12 -5 24 -11
28 -6 3 -8 17 -5 30 6 21 2 25 -23 30 -18 4 -31 14 -35 26 -4 17 -10 19 -33
13 -15 -3 -29 -11 -31 -16 -2 -5 -8 -9 -13 -9 -6 0 -8 4 -4 9 3 6 -4 15 -15
21 -11 6 -18 15 -15 20 3 5 -3 24 -13 42 -18 32 -21 33 -74 30 -53 -4 -55 -3
-68 27 -8 19 -20 31 -31 31 -11 0 -19 4 -19 10 0 13 -39 33 -79 39 -19 3 -34
11 -33 16 1 20 -22 37 -44 32 -13 -2 -22 -1 -21 4 4 14 -75 89 -93 89 -10 0
-22 5 -26 11 -4 7 -15 1 -29 -17 -25 -31 -31 -26 -37 31 -2 22 -8 30 -22 30
-15 0 -23 11 -32 45 -7 25 -12 41 -13 37 -1 -5 -5 -5 -11 -2 -17 10 12 32 37
27 16 -3 23 0 23 11 0 8 3 22 6 30 4 10 -1 15 -13 14 -15 -2 -17 4 -15 31 2
18 -1 32 -7 32 -6 0 -11 5 -11 10 0 6 9 10 21 10 11 0 17 5 14 10 -10 17 5 49
26 55 12 4 27 22 35 41 18 44 18 65 -1 58 -20 -8 -29 20 -15 47 11 19 14 20
21 6 8 -14 12 -13 32 7 13 13 28 25 34 27 5 2 13 23 16 47 4 35 2 45 -14 55
-11 7 -19 23 -19 39 0 31 15 44 33 29 18 -15 61 9 65 37 2 12 10 22 18 22 8 0
14 7 14 15 0 8 14 28 30 43 17 16 30 39 30 51 0 12 6 21 16 21 12 0 14 7 9 29
-5 23 -2 32 12 39 10 5 24 7 31 5 20 -7 62 25 62 48 0 45 59 61 90 24 19 -22
47 -6 59 36 7 21 17 39 24 39 7 0 21 3 33 6 13 3 28 -1 38 -11 22 -23 37 -15
59 31 48 100 38 93 108 82 33 -6 37 -3 59 32 24 39 68 68 79 52 9 -12 80 -10
75 3 -5 15 23 48 35 41 6 -4 19 2 31 14 14 14 29 19 54 16 25 -4 42 2 67 20
18 13 35 28 38 33 4 5 28 5 59 -1 51 -10 54 -10 82 17 25 24 30 26 36 12 9
-26 43 -31 65 -11 17 15 22 16 29 5 6 -10 14 -3 29 27 23 45 55 70 67 51 3 -6
1 -16 -5 -22 -6 -6 -11 -19 -11 -28 0 -20 28 -45 38 -34 4 4 1 10 -5 12 -7 3
-13 12 -13 20 0 12 3 13 14 4 11 -9 22 -7 50 10 20 11 36 24 36 27 1 4 13 22
29 40 33 38 61 35 61 -7 0 -15 5 -32 11 -38 14 -14 7 -85 -8 -91 -9 -2 -14 8
-14 30 -2 28 -3 29 -6 7 -2 -15 -13 -35 -24 -45 -24 -21 -24 -34 -1 -34 16 -1
16 -1 0 -11 -10 -5 -18 -17 -18 -25 0 -11 7 -13 28 -8 l27 7 -20 -22 c-16 -19
-17 -24 -5 -32 11 -8 9 -9 -9 -4 -16 5 -21 4 -17 -4 4 -6 0 -11 -8 -11 -9 0
-16 -4 -16 -10 0 -5 5 -10 11 -10 13 0 39 -25 39 -39 0 -5 -7 -14 -15 -19 -14
-7 -13 -11 5 -27 11 -10 20 -25 21 -34 0 -9 5 -2 10 14 5 19 5 31 -1 33 -13 5
-13 29 -1 36 18 11 42 -6 36 -25 -8 -24 13 -25 30 -3 9 13 16 14 30 6 15 -8
19 -23 21 -79 1 -37 -2 -75 -7 -84 -5 -10 -4 -20 4 -28 9 -9 8 -16 -1 -32 -11
-18 -11 -23 4 -33 9 -7 14 -18 10 -24 -11 -18 -24 -14 -31 9 -5 15 -10 18 -18
10 -12 -12 8 -41 29 -41 17 0 18 -10 3 -30 -8 -11 -12 -12 -16 -2 -2 6 -18 12
-33 12 -33 0 -47 15 -31 34 9 11 6 12 -14 8 -18 -3 -23 -8 -16 -16 6 -7 8 -22
4 -34 -4 -16 -1 -22 11 -22 9 0 16 5 16 10 0 6 9 10 20 10 11 0 20 -7 20 -15
0 -8 9 -15 21 -15 11 0 18 -4 14 -9 -3 -6 1 -13 8 -18 8 -4 18 -36 24 -70 9
-60 9 -63 -11 -63 -17 0 -18 -2 -6 -9 8 -6 17 -8 21 -5 9 5 29 -52 28 -80 0
-12 -3 -15 -6 -8 -2 6 -11 12 -19 12 -9 0 -13 -4 -10 -8 2 -4 1 -14 -5 -22 -7
-12 -9 -11 -9 5 0 12 5 26 12 33 6 6 9 15 5 19 -4 3 -19 -8 -34 -25 -26 -32
-53 -42 -53 -21 0 8 -5 8 -15 -1 -8 -7 -15 -21 -15 -32 0 -17 2 -18 15 -8 23
19 29 5 9 -24 -9 -15 -14 -29 -10 -33 3 -3 6 -1 6 6 0 7 5 9 11 5 6 -3 15 -1
19 5 11 18 73 26 68 9 -3 -7 -15 -12 -26 -10 -15 2 -22 -2 -22 -13 0 -11 -6
-15 -18 -11 -16 5 -18 1 -18 -30 1 -31 4 -35 23 -31 33 6 51 -19 27 -38 -10
-8 -27 -13 -36 -11 -21 5 -21 5 -7 -48 16 -58 37 -104 50 -108 8 -3 8 -10 -2
-26 -11 -17 -11 -26 -2 -40 6 -9 16 -16 22 -14 6 1 11 -4 11 -11 0 -7 8 -22
17 -34 l17 -21 11 21 c14 29 35 33 35 7 0 -12 4 -19 9 -16 5 3 7 14 5 24 -5
21 12 50 23 38 4 -5 2 -11 -5 -13 -8 -3 0 -17 23 -39 44 -41 58 -43 45 -8 -13
33 -13 34 5 34 31 0 58 -136 29 -147 -21 -8 -17 -26 5 -20 16 4 19 -4 24 -77
4 -44 11 -94 16 -111 6 -16 13 -43 16 -59 5 -23 8 -27 15 -15 13 19 10 90 -4
114 -13 22 -13 26 -1 70 11 42 34 62 67 57 16 -3 42 4 63 17 43 25 45 25 45 6
0 -8 5 -15 11 -15 5 0 7 4 4 10 -3 5 -1 19 5 30 16 30 62 23 72 -10 l7 -25 -1
25 c-2 51 31 100 46 68 3 -7 3 -1 0 15 -5 23 2 35 44 77 32 31 56 48 65 44 10
-3 18 2 22 15 10 31 163 130 205 131 56 3 60 1 72 -25 7 -16 19 -25 35 -25 20
0 22 4 17 24 -6 23 -4 24 40 23 39 -2 45 -5 40 -19 -7 -22 12 -24 20 -3 7 18
56 10 69 -12 4 -7 17 -13 27 -13 13 0 20 -7 20 -20 0 -11 7 -20 15 -20 7 0 18
-7 23 -17 7 -12 18 -15 45 -10 27 4 39 1 53 -14 11 -13 30 -19 57 -19 26 0 58
-11 94 -31 54 -31 83 -33 83 -4 0 8 6 15 14 15 13 0 51 128 41 138 -3 3 -5 -2
-5 -11 0 -12 -26 0 -102 44 -57 33 -110 68 -118 78 -9 10 -21 16 -28 13 -8 -2
-13 2 -11 9 5 41 -25 61 -46 32 -12 -16 -14 -16 -38 0 -68 44 -409 80 -477 49
-14 -6 -59 -25 -101 -42 -112 -45 -236 -160 -331 -305 -28 -44 -58 -86 -65
-93 -7 -7 -13 -22 -13 -33 0 -10 -8 -28 -17 -38 -10 -11 -24 -27 -31 -35 -20
-25 -32 -19 -32 18 0 19 -6 36 -12 39 -10 3 -10 7 -1 17 6 7 9 19 6 26 -3 8 0
14 6 14 5 0 15 9 21 20 8 15 7 26 -5 44 -15 22 -15 27 -2 48 9 14 13 36 10 56
-5 32 -23 46 -23 17 0 -17 -30 -35 -59 -35 -12 0 -21 -7 -21 -15 0 -28 -26
-15 -38 19 -13 34 -52 78 -52 58 0 -18 -20 -14 -27 6 -3 9 -13 25 -21 34 -15
17 -11 48 7 48 5 0 11 -10 14 -22 l6 -22 20 25 c30 39 151 278 151 300 0 10 5
19 10 19 6 0 10 9 10 20 0 11 9 25 19 32 10 6 17 18 14 25 -3 8 4 21 17 30 15
10 20 22 16 36 -3 14 12 44 49 98 30 42 55 87 55 99 0 18 4 21 21 17 19 -5 21
-2 16 23 -4 18 -2 30 6 34 9 3 9 7 0 13 -8 5 -1 19 23 43 19 19 34 28 34 21 0
-7 5 -9 10 -6 6 4 7 11 4 17 -3 5 12 27 35 49 34 31 47 37 70 33 29 -6 44 10
45 46 1 10 14 16 41 18 22 2 44 10 48 18 4 8 21 14 37 14 34 0 45 13 31 37
-10 17 -11 16 -17 -3 -4 -16 -11 -20 -25 -17 -18 5 -18 7 -4 23 18 19 21 40 3
22 -7 -7 -22 -12 -34 -12 -12 0 -25 -7 -28 -16 -4 -10 -14 -14 -26 -11 -23 6
-26 -3 -7 -22 10 -11 7 -12 -14 -7 -18 4 -31 1 -39 -9 -16 -19 -39 -19 -46 0
-4 8 -15 15 -26 15 -13 0 -18 -5 -15 -14 3 -8 0 -20 -8 -26 -17 -14 -15 -50 2
-50 7 0 13 -9 13 -20 0 -24 -15 -26 -24 -4 -6 15 -8 15 -31 0 -14 -9 -31 -14
-37 -10 -7 4 -8 3 -4 -4 4 -7 2 -12 -3 -12 -6 0 -11 -9 -11 -20 0 -21 -15 -27
-25 -9 -4 5 1 19 11 30 16 18 16 19 0 19 -27 0 -42 -22 -42 -59 1 -23 -5 -37
-18 -45 -11 -6 -34 -26 -51 -44 l-33 -34 -10 29 -10 28 -11 -28 c-13 -33 -7
-49 14 -40 11 3 15 -2 15 -18 0 -18 -3 -20 -12 -11 -18 18 -38 14 -38 -8 0
-11 7 -20 15 -20 21 0 19 -16 -7 -46 l-23 -26 -6 24 c-7 22 -7 22 -8 -3 -1
-15 -8 -32 -16 -39 -8 -7 -15 -27 -15 -45 0 -60 -11 -95 -31 -95 -9 0 -19 7
-21 16 -2 12 -9 8 -25 -15 -20 -26 -21 -34 -11 -56 6 -14 9 -28 5 -31 -10 -10
-27 6 -27 27 0 10 -7 19 -15 19 -19 0 -19 -19 -1 -43 16 -21 10 -57 -9 -57
-15 0 -24 59 -17 113 3 27 8 35 14 25 6 -8 7 2 3 29 -5 33 -3 43 11 51 11 6
13 11 5 16 -15 10 -31 -2 -31 -22 -1 -20 -34 -62 -49 -62 -6 0 -11 15 -11 33
0 18 -7 43 -16 55 -15 21 -15 25 0 41 9 10 16 28 16 42 0 13 4 30 9 38 6 9 5
24 -2 38 -8 19 -8 26 3 33 11 7 12 15 1 48 -8 22 -11 52 -7 65 3 14 2 29 -4
32 -15 9 -12 63 5 89 9 13 17 36 19 52 5 34 17 67 27 74 10 7 15 87 6 96 -20
20 -4 49 25 45 4 0 21 17 38 39 26 33 35 38 50 30 24 -13 53 -13 45 0 -3 5 6
12 20 16 18 4 28 15 32 35 7 39 17 43 48 23 24 -16 25 -15 25 5 0 20 9 25 36
22 6 -1 22 14 35 33 23 34 56 56 83 56 7 0 21 9 31 20 11 12 31 20 49 20 22 0
40 9 59 30 28 30 57 40 57 20 0 -6 6 -10 13 -9 6 1 29 -1 50 -6 28 -5 42 -4
55 8 26 22 61 30 77 17 11 -9 23 -9 52 1 21 7 39 10 39 8 1 -2 11 4 22 14 12
11 25 17 29 14 5 -3 8 -36 7 -74 -2 -60 -1 -66 12 -48 8 10 14 34 14 52 0 26
4 33 20 34 23 2 29 3 53 13 9 5 28 5 42 2 14 -4 25 -2 25 4 0 15 48 12 57 -3
13 -22 69 -29 84 -11 7 8 18 13 25 10 7 -3 18 2 24 10 18 21 45 17 90 -11 21
-14 46 -22 55 -19 8 3 15 1 15 -5 0 -6 5 -11 10 -11 6 0 10 7 8 16 -4 24 47
40 69 23 33 -28 143 -44 128 -19 -9 15 13 20 39 10 20 -7 26 -6 26 5 0 12 7
11 46 -2 44 -15 48 -15 91 7 24 12 47 19 50 16 4 -3 1 -6 -5 -6 -7 0 -12 -5
-12 -11 0 -5 5 -7 12 -3 6 4 27 9 47 11 20 2 43 11 51 19 10 10 24 13 40 9 14
-3 42 -10 64 -14z m1832 -457 c21 -14 49 -38 62 -53 23 -26 23 -26 16 -2 -5
21 -4 23 17 18 13 -3 40 -10 59 -14 28 -7 37 -16 47 -43 10 -31 12 -33 19 -15
4 11 15 27 23 35 13 13 14 11 8 -22 -5 -36 -5 -37 24 -35 32 2 36 13 15 42
-17 25 -3 76 16 57 10 -10 15 -30 20 -91 1 -7 14 -21 30 -31 17 -10 24 -20 18
-22 -9 -3 -9 -10 1 -31 13 -30 29 -36 29 -12 0 9 7 18 15 21 8 3 17 14 20 25
5 14 12 18 31 13 14 -4 24 -2 24 5 0 6 -7 11 -15 11 -8 0 -15 5 -15 10 0 16
-36 12 -50 -5 -8 -10 -17 -12 -23 -6 -27 27 53 53 82 27 10 -9 20 -14 23 -10
3 3 15 -6 25 -20 15 -18 23 -22 31 -14 14 14 45 -9 35 -25 -3 -5 -1 -7 4 -4 6
4 23 -5 37 -18 29 -27 46 -32 46 -13 0 9 3 9 12 0 8 -8 17 -8 31 0 20 10 20
11 -4 24 -13 7 -34 13 -47 14 -14 0 -27 9 -34 24 -14 33 -4 61 20 51 9 -4 37
-11 62 -15 65 -10 80 -19 80 -46 0 -27 12 -29 59 -13 45 16 79 4 103 -37 17
-30 25 -35 47 -31 14 3 40 -1 58 -8 25 -11 33 -21 39 -49 5 -32 10 -36 38 -37
84 -3 81 -2 78 -36 -2 -19 1 -33 8 -33 6 0 14 -10 19 -22 7 -19 15 -22 48 -20
45 4 57 -7 67 -57 9 -50 23 -61 76 -61 49 0 71 -19 52 -44 -5 -6 -12 -23 -16
-38 -5 -21 -3 -28 9 -28 8 0 15 -4 15 -10 0 -5 12 -10 28 -10 52 0 74 -11 68
-34 -22 -92 -21 -93 28 -115 25 -11 46 -22 46 -24 0 -2 -9 -22 -20 -45 -11
-22 -20 -45 -20 -49 0 -4 15 -20 34 -35 40 -32 50 -71 29 -112 -16 -30 -15
-31 26 -66 45 -39 47 -47 27 -102 -13 -35 -12 -38 11 -53 13 -9 21 -19 19 -24
-3 -4 4 -15 15 -24 23 -20 24 -40 4 -57 -13 -10 -12 -17 5 -50 11 -21 24 -41
30 -45 15 -9 12 -35 -5 -35 -8 0 -23 9 -33 20 -19 20 -19 20 -56 -20 -20 -22
-43 -40 -52 -40 -8 0 -22 -5 -32 -11 -15 -9 -24 -7 -48 16 -53 49 -59 50 -106
1 -35 -36 -52 -46 -90 -51 -40 -6 -48 -5 -48 9 0 9 -4 16 -10 16 -5 0 -10 -8
-10 -17 0 -20 -57 -63 -110 -83 -19 -7 -41 -18 -48 -24 -20 -15 -49 -79 -44
-98 2 -12 -3 -18 -15 -18 -10 0 -28 -3 -40 -6 -16 -4 -23 -2 -23 8 0 24 24 68
38 68 13 0 16 23 13 78 -2 23 2 32 13 32 9 0 16 7 16 15 0 8 -6 15 -12 15 -23
0 -39 -16 -32 -33 7 -20 -7 -22 -25 -4 -10 10 -12 7 -9 -14 2 -15 9 -33 15
-40 16 -20 -50 -100 -69 -81 -6 6 -24 12 -39 12 -27 0 -54 21 -42 33 3 4 19 7
35 7 18 0 28 5 28 15 0 8 -9 15 -20 15 -20 0 -21 3 -24 64 -1 11 -7 21 -15 24
-10 3 -12 0 -8 -11 3 -9 1 -18 -6 -20 -9 -3 -9 -10 1 -26 16 -27 6 -47 -14
-30 -11 9 -14 7 -14 -16 0 -18 -11 -37 -35 -58 -30 -26 -33 -32 -19 -37 17 -6
28 -60 12 -60 -20 0 -23 2 -20 15 4 20 -17 23 -87 14 -69 -10 -99 -25 -81 -43
13 -13 13 -26 0 -26 -5 0 -10 6 -10 14 0 20 -28 28 -51 15 -16 -8 -18 -13 -8
-25 6 -8 20 -14 30 -14 11 0 19 -4 19 -9 0 -15 -54 1 -77 23 -13 12 -23 29
-23 39 0 10 -5 15 -10 12 -6 -4 -8 -11 -5 -16 7 -10 -6 -12 -29 -3 -9 3 -13
10 -10 15 9 15 -8 10 -28 -8 -25 -23 -22 -34 6 -23 19 7 28 5 42 -11 9 -10 12
-19 6 -19 -6 0 -12 4 -14 10 -2 6 -23 1 -48 -12 -58 -28 -58 -28 -37 -39 18
-11 24 -49 7 -49 -5 0 -10 6 -10 14 0 7 -11 21 -25 30 -20 13 -28 14 -44 4
-15 -9 -23 -9 -35 1 -13 11 -19 11 -31 1 -12 -10 -15 -10 -15 4 0 9 -8 16 -20
16 -13 0 -20 7 -20 19 0 25 -23 43 -45 35 -16 -6 -17 -3 -10 22 16 62 15 63
-37 50 -26 -6 -27 -5 -19 17 12 31 0 50 -25 40 -35 -13 -45 -31 -41 -73 2 -22
0 -40 -5 -40 -4 0 -8 7 -8 15 0 19 -19 19 -44 0 -17 -13 -18 -15 -3 -15 9 0
17 -4 17 -9 0 -14 -32 -23 -44 -11 -5 5 -23 10 -38 10 -22 0 -28 -5 -28 -22
-1 -21 -1 -22 -11 -5 -15 26 16 61 42 47 27 -15 40 -12 37 8 -2 11 3 17 14 16
10 -1 15 3 11 9 -4 6 2 8 15 5 26 -7 31 16 6 26 -10 4 -14 12 -10 22 3 8 -1
22 -9 30 -19 20 -19 38 0 30 8 -3 21 -9 29 -12 11 -4 13 0 9 15 -3 14 0 23 11
27 9 3 16 12 16 20 0 19 -16 18 -24 -3 -5 -13 -9 -14 -19 -4 -9 10 -7 17 12
32 16 13 21 23 14 27 -16 10 -4 62 14 62 19 0 10 46 -14 72 -12 14 -14 28 -8
65 4 27 7 73 6 105 -2 48 1 57 17 62 14 5 22 20 27 54 8 53 18 77 48 109 13
15 21 40 24 75 2 28 13 68 24 87 17 29 19 44 14 92 -4 37 -3 59 4 63 6 4 11
16 11 26 0 17 3 18 25 8 19 -8 35 -8 64 1 31 9 60 8 142 -5 57 -8 118 -20 134
-27 69 -26 155 -84 225 -153 63 -61 84 -92 130 -183 35 -71 61 -110 71 -110 9
-1 20 -8 23 -17 9 -24 7 -105 -4 -143 -6 -21 -6 -40 0 -50 6 -11 9 -12 10 -3
0 7 4 11 8 8 15 -9 1 -76 -17 -77 -14 -1 -13 -2 2 -6 9 -2 17 -13 17 -23 0
-34 -23 -120 -32 -120 -5 0 -7 -4 -3 -10 7 -11 35 -2 35 12 0 5 9 21 20 35 15
19 17 29 9 39 -8 10 -4 22 16 48 22 29 24 38 15 55 -6 12 -14 21 -19 21 -5 0
-11 24 -14 53 -4 28 -9 69 -12 89 -5 35 -4 38 19 36 20 -2 23 -5 13 -16 -9
-11 -7 -17 6 -27 9 -7 18 -21 18 -31 1 -17 2 -17 6 -1 3 12 15 17 44 17 38 0
38 0 21 20 -9 11 -18 16 -20 10 -4 -12 -42 -14 -42 -2 0 4 4 12 9 18 11 12 24
67 14 61 -15 -8 -48 -20 -62 -23 -20 -4 -43 28 -28 38 13 8 -15 39 -47 51 -11
4 -16 13 -12 22 3 8 1 15 -4 15 -15 0 -39 63 -28 76 5 7 2 16 -7 24 -9 7 -14
18 -11 25 2 7 -6 10 -25 7 -17 -2 -29 0 -29 6 0 6 -12 23 -27 37 -25 22 -26
27 -14 46 12 20 11 21 -10 16 -31 -8 -55 7 -75 48 -9 19 -20 32 -25 29 -5 -3
-9 0 -9 5 0 10 22 15 58 14 6 -1 12 3 12 8 0 5 5 9 10 9 15 0 12 -16 -5 -34
-23 -22 -18 -26 12 -11 15 8 30 12 33 8 3 -3 -1 -8 -7 -10 -16 -6 -17 -33 -1
-33 6 0 20 -8 31 -17 19 -17 19 -17 13 3 -5 17 -2 23 15 27 24 6 60 -4 62 -18
1 -6 5 -9 10 -8 4 2 7 -2 7 -7 0 -6 7 -10 15 -10 21 0 19 -10 -8 -42 -15 -19
-26 -25 -35 -19 -11 7 -10 13 8 29 20 19 13 41 -9 28 -5 -4 -11 -1 -13 5 -2 5
-11 7 -21 3 -16 -6 -16 -8 -2 -30 8 -13 15 -30 15 -37 0 -8 9 -17 21 -20 12
-3 18 -10 14 -16 -3 -6 1 -11 9 -11 9 0 16 5 16 11 0 7 8 18 18 25 13 10 14
13 3 14 -11 0 -10 4 4 14 15 11 20 28 21 70 1 31 7 63 14 71 6 8 10 20 8 27
-3 8 -17 -5 -34 -30 -22 -31 -34 -41 -49 -38 -85 20 -90 22 -93 46 -6 35 -32
70 -53 70 -11 0 -19 4 -19 9 0 4 -15 12 -32 18 -22 6 -32 15 -30 25 2 11 -3
15 -16 11 -10 -2 -35 5 -56 18 -39 23 -63 19 -30 -6 10 -8 14 -15 7 -15 -6 0
-15 5 -18 10 -10 16 -28 12 -21 -5 3 -9 0 -15 -9 -15 -18 0 -20 -17 -2 -23 6
-2 9 -8 4 -12 -4 -5 -13 -3 -19 3 -16 16 -28 15 -28 -3 0 -12 -4 -13 -19 -5
-27 14 -34 13 -27 -5 7 -18 -4 -19 -28 -2 -16 12 -15 14 8 36 22 21 26 22 32
7 9 -22 24 -20 24 4 0 11 5 20 11 20 6 0 9 10 7 23 -2 18 -9 22 -36 22 -21 1
-37 7 -43 18 -6 9 -28 20 -51 24 -25 3 -51 16 -64 30 -24 26 -34 29 -34 9 0
-7 10 -16 22 -19 26 -7 23 -12 -15 -21 -17 -4 -26 -3 -23 3 3 5 -14 7 -43 5
-64 -6 -101 8 -101 40 0 13 -7 29 -15 36 -9 7 -14 18 -12 24 7 19 -12 46 -28
40 -19 -8 -32 23 -16 39 9 9 14 8 21 -3 18 -28 -2 63 -26 120 -18 45 -20 56
-8 58 18 4 18 0 -11 58 -24 47 -27 49 -67 50 -31 0 -45 6 -57 23 -9 13 -31 40
-50 62 -19 22 -32 41 -30 43 8 7 64 24 80 25 9 1 34 -11 55 -25z m-3884 -1883
c3 -3 9 -23 12 -43 5 -35 4 -38 -18 -38 -19 0 -23 5 -24 31 0 17 -3 33 -6 36
-9 10 -26 -8 -26 -28 0 -11 -8 -32 -17 -46 -17 -26 -17 -27 1 -20 35 14 68
-50 45 -88 -4 -5 -9 -22 -13 -37 -4 -18 -13 -28 -24 -28 -30 0 -42 -22 -42
-76 0 -43 -3 -53 -20 -57 -10 -3 -27 1 -36 8 -27 19 -74 -8 -74 -43 0 -15 -3
-37 -6 -50 -5 -18 -9 -20 -20 -11 -11 9 -14 8 -14 -1 0 -7 -7 -10 -15 -6 -8 3
-28 0 -45 -5 -23 -8 -32 -20 -40 -50 -13 -48 -19 -52 -72 -40 -51 12 -65 3
-74 -45 -9 -48 -24 -57 -74 -44 -47 13 -70 8 -70 -15 0 -8 -4 -15 -9 -15 -5 0
-12 -11 -15 -25 -7 -28 -31 -32 -60 -10 -29 22 -50 18 -73 -13 -21 -28 -23
-29 -118 -29 -69 0 -100 -4 -105 -13 -7 -11 -14 -10 -35 4 -26 17 -28 17 -54
-8 -15 -14 -30 -26 -34 -26 -3 0 -14 14 -22 31 -15 28 -15 32 0 50 10 10 22
17 27 16 14 -3 19 33 8 53 -17 32 -20 70 -5 70 8 0 17 9 20 20 4 11 11 18 16
14 6 -3 16 2 24 12 12 16 11 21 -6 37 -16 15 -17 22 -8 39 10 19 9 20 -7 13
-19 -8 -62 -10 -68 -4 -2 2 -7 19 -11 38 -5 23 -4 31 4 27 7 -5 11 7 11 38 0
25 -4 48 -10 51 -5 3 -10 17 -10 30 0 13 -5 27 -10 30 -6 4 -8 10 -5 15 3 5
-4 12 -16 15 -14 5 -19 13 -16 26 3 11 -1 41 -8 68 -7 28 -10 53 -7 56 4 4 -1
11 -11 16 -20 12 -23 29 -4 29 20 0 50 -37 44 -54 -7 -19 3 -28 18 -16 14 11
45 3 45 -12 0 -5 11 -21 24 -35 14 -15 23 -30 20 -34 -2 -4 12 -16 31 -28 19
-11 37 -16 40 -10 8 13 59 11 90 -3 17 -8 25 -19 25 -36 0 -24 1 -24 19 -8 10
9 22 16 27 15 20 -3 28 2 16 9 -17 11 -4 42 17 42 28 0 31 -11 10 -33 -41 -45
-5 -63 61 -30 31 15 36 15 63 0 37 -22 44 -21 92 3 37 19 41 19 52 4 13 -18
33 -11 33 12 0 20 38 17 43 -3 4 -15 5 -14 6 3 2 29 21 44 58 44 18 0 33 5 33
11 0 19 44 59 65 59 12 0 26 -5 33 -12 17 -17 27 -1 11 18 -13 16 -11 17 18
11 30 -6 32 -4 57 48 14 30 31 55 37 55 6 0 9 -7 6 -15 -4 -8 -2 -17 3 -20 6
-4 14 5 20 19 10 28 25 34 33 14 4 -10 8 -10 15 1 6 8 21 16 33 18 13 2 28 8
33 13 10 10 44 4 58 -9z m4672 -55 c13 -4 15 -10 8 -19 -5 -6 -8 -30 -7 -52 3
-38 4 -40 33 -38 23 1 33 -4 37 -18 4 -11 17 -31 31 -46 19 -21 24 -23 24 -9
0 10 6 16 13 13 6 -2 10 -11 8 -18 -3 -8 -5 -27 -5 -43 -1 -19 -12 -37 -36
-57 -33 -28 -35 -33 -32 -83 2 -32 -1 -57 -7 -60 -6 -4 -11 -16 -11 -26 0 -10
-9 -22 -21 -25 -18 -6 -20 -12 -14 -38 6 -30 14 -92 18 -147 2 -19 -2 -24 -15
-22 -10 2 -18 -3 -18 -10 0 -7 -9 -24 -19 -37 -15 -20 -21 -22 -40 -12 -20 11
-23 9 -38 -28 -9 -23 -19 -41 -24 -41 -4 0 -26 23 -48 51 -36 45 -46 52 -81
53 -22 1 -43 6 -47 10 -5 4 -7 32 -6 62 2 51 0 54 -25 60 -76 17 -77 17 -82
75 -4 44 -9 54 -25 57 -11 2 -28 14 -37 25 -15 19 -18 20 -18 5 0 -27 -29 -22
-40 7 -13 34 -3 57 21 50 11 -4 19 -2 19 4 0 6 -5 11 -11 11 -6 0 -22 9 -36
20 -17 13 -41 20 -69 20 -48 0 -64 17 -64 67 0 37 -10 50 -43 58 -16 4 -31 13
-33 20 -3 7 -14 15 -25 18 -10 3 -22 13 -26 24 -3 10 -11 21 -16 24 -10 7 20
42 46 52 11 4 14 12 10 24 -4 13 -1 11 13 -5 13 -15 34 -25 64 -29 53 -7 116
-44 125 -73 6 -20 25 -28 25 -11 0 5 14 9 30 9 17 -1 30 -5 30 -11 0 -5 7 -6
17 -3 11 5 28 -6 54 -34 40 -43 49 -48 49 -26 0 18 77 31 96 15 18 -15 18 -34
-2 -65 -9 -13 -14 -28 -10 -31 7 -7 55 45 56 61 0 13 33 35 52 36 12 0 15 5
11 17 -6 14 0 15 43 10 38 -5 54 -3 71 11 21 15 22 22 14 62 -5 25 -9 39 -10
33 -1 -16 -31 -17 -31 -2 0 6 9 13 20 16 24 6 26 21 5 29 -8 4 -12 10 -9 15 3
5 8 8 12 6 4 -2 15 -7 26 -11z m-893 -323 c8 -21 7 -38 -2 -66 -10 -29 -10
-43 -1 -57 13 -22 6 -30 -24 -30 -21 0 -50 -31 -39 -42 3 -2 1 -18 -4 -34 -7
-23 -5 -36 9 -54 23 -30 38 -8 16 24 -8 13 -12 26 -9 30 12 11 33 6 33 -8 0
-9 7 -12 21 -9 14 4 19 12 16 24 -6 24 9 25 22 2 8 -14 12 -15 22 -6 10 10 9
16 -2 29 -12 16 -12 17 4 11 15 -6 16 -4 6 14 -6 12 -7 24 -2 28 4 3 14 19 21
35 12 27 14 27 31 12 10 -9 21 -16 25 -16 11 0 233 -227 239 -245 4 -8 13 -12
22 -9 11 4 19 -4 30 -30 8 -19 25 -41 37 -47 32 -17 68 -61 68 -82 0 -10 5
-15 11 -12 11 8 79 -57 80 -77 0 -10 2 -10 6 -1 3 9 15 6 41 -11 39 -24 95
-26 139 -4 18 9 32 7 65 -5 48 -19 54 -17 38 12 -9 17 -8 22 5 27 9 4 21 2 27
-4 14 -14 1 -62 -17 -62 -18 0 -21 -50 -4 -67 7 -7 9 -19 6 -27 -8 -21 -53
-21 -113 0 -37 13 -48 13 -55 3 -6 -10 -13 -10 -33 -1 -23 10 -26 9 -26 -8 0
-10 -9 -22 -20 -25 -13 -4 -20 -15 -20 -31 0 -27 -9 -30 -29 -11 -11 10 -12 8
-7 -9 4 -15 2 -24 -9 -28 -8 -3 -15 -14 -15 -24 0 -10 -5 -23 -12 -30 -8 -8
-8 -15 1 -25 10 -12 6 -15 -24 -19 -35 -4 -35 -4 -35 34 0 26 -5 41 -15 45
-25 9 -28 -3 -11 -36 9 -17 19 -51 23 -76 3 -25 10 -45 16 -45 14 0 -23 -40
-37 -40 -25 -1 -49 -52 -47 -105 1 -50 -1 -53 -27 -58 -15 -3 -30 0 -35 6 -9
14 -1 81 11 85 4 1 6 18 4 37 -2 19 -8 33 -12 30 -5 -3 -24 13 -42 36 -18 23
-46 55 -63 71 l-30 29 26 -6 c22 -5 27 -2 33 17 9 35 7 48 -6 48 -7 0 -32 7
-56 17 l-43 16 7 68 6 67 -46 7 c-55 9 -65 23 -58 81 4 40 3 43 -22 50 -15 3
-26 13 -26 23 0 13 -2 13 -9 3 -5 -8 -17 -12 -27 -10 -16 3 -19 13 -19 63 0
33 -3 65 -8 72 -4 6 -3 22 2 36 10 26 -2 47 -25 47 -7 0 -20 10 -28 22 -13 18
-16 19 -16 5 0 -25 -12 -21 -42 13 -14 17 -36 30 -47 30 -29 0 -26 15 15 85
54 94 76 147 76 188 1 45 23 51 39 10z m-3717 -88 c-3 -14 -1 -31 5 -38 8 -10
7 -19 -4 -33 -19 -25 -19 -34 0 -34 8 0 15 -4 15 -10 0 -5 14 -17 31 -26 28
-14 30 -17 16 -31 -11 -11 -13 -23 -7 -44 5 -16 5 -31 0 -34 -4 -3 -6 -14 -3
-25 3 -13 0 -20 -8 -20 -11 0 -11 -2 -1 -8 9 -6 11 -21 6 -50 -5 -33 -12 -44
-30 -48 -14 -4 -31 0 -41 7 -13 11 -17 11 -20 2 -3 -7 -13 -13 -22 -13 -22 0
-41 -40 -41 -84 0 -32 -2 -33 -52 -42 l-51 -9 -16 -60 c-14 -53 -19 -60 -49
-69 -29 -8 -32 -12 -27 -36 5 -23 1 -32 -23 -49 -17 -12 -34 -21 -39 -21 -13
0 -53 -77 -53 -102 0 -32 -18 -48 -52 -48 -20 0 -28 5 -28 18 0 9 -13 32 -29
50 -24 27 -35 32 -74 32 -37 0 -55 -7 -106 -45 -34 -25 -61 -49 -61 -54 0 -9
-16 -27 -142 -161 -28 -30 -52 -63 -53 -73 -2 -21 -75 -98 -86 -91 -4 2 -15
28 -24 57 -9 28 -20 61 -24 72 -19 48 -34 93 -46 136 -7 26 -18 55 -23 65 -6
11 -27 54 -48 97 -21 43 -41 80 -45 83 -4 2 -15 18 -23 35 -13 26 -13 31 0 36
18 7 19 23 1 23 -8 0 -24 11 -37 25 -23 25 -23 25 -4 43 16 14 41 17 159 18
212 1 294 5 301 15 3 5 21 9 40 9 24 0 34 5 34 15 0 8 9 15 19 15 11 0 23 5
26 10 4 6 14 10 23 9 10 -2 38 7 64 19 26 12 52 22 57 22 6 0 11 5 11 11 0 6
7 9 15 5 8 -3 26 6 40 20 21 21 29 23 40 14 12 -10 15 -9 15 5 0 9 9 19 20 22
11 3 20 10 20 15 0 5 16 16 36 24 28 12 39 12 50 3 19 -16 30 -4 14 16 -7 9
-11 17 -9 19 2 2 27 19 56 39 29 19 65 48 80 64 48 50 59 56 82 43 20 -10 21
-8 21 32 0 31 6 48 20 61 28 24 33 21 25 -13 -4 -17 -2 -30 3 -30 14 0 25 31
23 63 -2 15 2 27 8 27 6 0 11 7 11 15 0 8 5 15 10 15 6 0 8 -11 4 -25z m472
-565 c6 -35 10 -40 33 -40 15 0 33 -6 40 -12 10 -11 14 -10 22 5 16 28 27 20
36 -25 l9 -43 48 3 c59 3 76 -10 76 -54 0 -24 5 -34 20 -39 12 -4 27 -2 34 4
11 9 15 0 20 -45 7 -59 -5 -88 -44 -109 -19 -10 -18 -13 21 -53 l41 -42 -46
-43 c-25 -24 -46 -46 -46 -49 0 -3 14 -20 30 -38 17 -18 30 -37 30 -43 0 -6
-16 -28 -36 -48 -24 -25 -39 -51 -44 -78 -7 -39 -6 -41 16 -41 33 0 31 -31 -4
-67 -16 -16 -37 -45 -47 -66 -17 -37 -17 -37 11 -91 l27 -53 -33 -41 c-18 -23
-36 -39 -41 -37 -17 11 -18 -14 -2 -31 13 -12 14 -19 5 -22 -6 -2 -12 -13 -12
-23 0 -11 4 -18 10 -14 16 10 50 -19 50 -42 0 -13 -4 -23 -10 -23 -5 0 -21
-18 -36 -39 -17 -26 -36 -42 -55 -46 -32 -7 -34 -12 -15 -38 11 -15 15 -15 25
-3 12 15 47 16 69 2 27 -16 8 -23 -80 -30 -51 -4 -109 -9 -128 -11 -19 -3 -53
-7 -75 -10 -56 -6 -182 -23 -234 -31 -32 -5 -42 -4 -37 4 4 7 1 12 -9 12 -9 0
-13 -5 -9 -11 7 -12 -12 -29 -33 -29 -7 0 -13 9 -13 20 0 27 -18 25 -22 -2 -4
-33 -45 -37 -51 -6 -4 22 -4 21 -6 -3 -1 -26 -42 -56 -61 -44 -5 3 -23 -3 -42
-14 -18 -11 -44 -21 -58 -23 -20 -2 -25 1 -25 20 0 15 -10 29 -30 40 -16 9
-34 23 -38 30 -4 6 -17 12 -27 12 -18 0 -19 6 -16 74 l4 73 -40 14 c-43 14
-68 53 -48 73 12 12 13 46 2 46 -5 0 -9 14 -10 31 -1 25 2 28 13 19 11 -10 15
-6 21 17 4 15 11 33 16 40 6 7 5 14 -2 18 -7 4 -9 21 -5 45 5 27 2 42 -9 53
-22 22 -20 46 7 72 12 13 27 30 34 38 7 8 17 17 24 19 9 3 13 32 15 88 2 73 5
87 23 99 24 15 26 33 9 61 -10 16 -9 23 7 40 10 11 24 19 31 16 12 -4 48 67
59 117 3 18 12 27 25 27 13 0 18 5 14 15 -4 8 -1 15 5 15 6 0 11 -5 11 -12 0
-24 18 8 34 62 16 51 22 58 79 92 34 20 70 40 79 43 9 4 24 24 32 46 9 22 23
39 32 39 22 0 72 48 95 92 11 21 23 37 27 36 4 0 15 2 24 6 9 4 26 2 37 -4 17
-8 22 -8 27 3 3 8 19 13 40 12 20 0 38 3 40 7 14 22 34 5 40 -32z m4154 -299
c3 -5 23 -18 46 -29 22 -11 52 -33 65 -47 13 -15 32 -36 42 -47 10 -11 28 -18
41 -16 17 2 34 -9 62 -42 21 -24 60 -65 87 -91 26 -25 48 -53 48 -60 1 -8 2
-18 4 -24 1 -5 3 -18 3 -28 2 -13 9 -17 25 -15 22 3 24 -2 11 -36 -6 -15 -4
-18 9 -13 11 4 20 -1 27 -13 14 -27 13 -37 -10 -60 -20 -20 -20 -20 2 -17 14
1 23 -4 26 -15 3 -15 -3 -18 -31 -18 -22 0 -37 6 -41 16 -8 20 -28 7 -22 -14
5 -16 -9 -52 -16 -42 -2 3 -12 17 -21 33 -23 36 -38 35 -27 -3 11 -38 34 -62
53 -54 8 3 17 -2 20 -10 4 -9 13 -16 20 -16 8 0 20 -6 27 -14 6 -8 21 -16 33
-18 12 -2 20 -6 17 -9 -3 -3 1 -13 9 -22 17 -22 7 -47 -19 -47 -11 0 -24 -8
-27 -17 -4 -10 -11 -21 -17 -25 -6 -4 -3 -15 9 -29 20 -21 20 -21 -2 -36 -13
-9 -23 -24 -23 -34 0 -28 -22 -35 -38 -11 -20 30 -32 28 -32 -5 -1 -27 -1 -27
-15 -9 -8 11 -15 32 -15 46 0 33 -17 50 -49 50 -26 1 -98 50 -73 50 6 0 12 7
12 16 0 9 -5 12 -12 8 -7 -5 -9 -2 -5 9 7 17 -17 42 -32 33 -5 -4 -13 -1 -16
5 -4 5 -14 8 -22 4 -18 -6 -63 20 -63 37 0 26 -34 48 -74 48 -68 0 -86 9 -86
41 0 61 -14 76 -76 82 -59 6 -74 17 -74 54 0 44 -18 73 -45 73 -25 0 -33 14
-15 25 6 3 10 15 10 27 0 15 -4 18 -17 13 -35 -15 -94 -27 -99 -22 -10 10 6
27 26 27 10 0 22 5 25 10 3 6 15 10 25 10 24 0 89 56 100 86 6 16 15 21 28 17
11 -2 23 0 26 6 4 6 0 11 -8 11 -18 0 -21 23 -5 51 13 25 29 16 29 -17 0 -14
6 -24 14 -24 22 0 25 21 8 64 -12 30 -13 43 -4 57 7 10 12 25 12 33 0 24 115
29 130 7z m-6063 -59 c-2 -4 -11 -23 -22 -43 -22 -44 -16 -64 22 -72 16 -3 40
-14 53 -25 24 -19 24 -20 7 -63 -21 -55 -22 -79 -2 -79 9 0 29 -7 45 -15 34
-18 39 -52 15 -95 -21 -37 -19 -44 30 -79 44 -31 44 -33 29 -56 -15 -23 -14
-27 7 -62 12 -21 33 -50 45 -65 13 -16 25 -37 29 -48 9 -27 19 -25 33 5 6 14
18 25 26 25 8 0 16 4 18 10 3 9 34 18 70 19 12 1 19 14 24 47 8 56 28 68 122
73 18 0 31 5 27 10 -3 5 -1 12 4 15 5 4 7 21 5 39 -6 38 10 62 47 71 23 5 27
2 32 -22 3 -15 15 -38 26 -51 24 -28 28 -79 7 -87 -8 -3 -22 -16 -30 -29 -14
-21 -13 -25 10 -56 29 -40 31 -84 4 -124 -26 -39 -25 -67 1 -91 16 -14 19 -25
14 -53 -4 -18 -13 -44 -20 -55 -12 -19 -12 -29 1 -71 14 -47 14 -52 -7 -93
-23 -48 -20 -112 6 -112 26 0 16 -39 -15 -62 -44 -32 -47 -53 -11 -94 37 -42
38 -47 6 -68 -32 -21 -32 -50 0 -88 14 -16 22 -34 19 -40 -4 -7 -10 -4 -16 6
-11 20 -28 12 -28 -15 0 -11 -12 -30 -27 -43 l-27 -23 17 -54 c17 -51 17 -54
0 -66 -9 -7 -22 -13 -28 -13 -13 0 -65 -58 -65 -73 0 -4 -7 -16 -16 -24 -14
-15 -19 -14 -50 1 -53 25 -98 17 -130 -23 -14 -18 -30 -8 -49 33 -19 39 -39
39 -91 -1 -39 -29 -59 -29 -78 -1 -21 29 -20 38 3 38 29 0 37 21 15 37 -16 12
-19 11 -26 -8 -5 -13 -14 -19 -23 -15 -8 3 -21 9 -29 12 -8 3 -25 -7 -39 -22
-19 -20 -31 -25 -50 -20 -19 4 -24 11 -20 26 3 11 0 20 -6 20 -6 0 -11 -5 -11
-12 0 -7 -13 3 -29 22 l-29 35 -46 -33 c-46 -33 -76 -36 -76 -9 0 17 -28 43
-57 51 -18 6 -22 4 -17 -8 4 -10 1 -16 -9 -16 -12 0 -14 11 -10 60 4 41 2 60
-6 60 -6 0 -11 -9 -11 -20 0 -11 -2 -20 -4 -20 -2 0 -11 -2 -19 -6 -11 -4 -15
10 -19 67 -4 54 -10 76 -23 85 -13 10 -15 17 -8 26 19 24 23 75 8 94 -21 28
-19 64 3 64 25 0 31 7 25 31 -7 25 -19 24 -26 -2 -3 -12 -10 -18 -16 -14 -6 3
-8 11 -5 17 4 6 8 26 10 45 2 26 -3 39 -21 55 -29 25 -31 40 -10 58 12 10 19
10 27 2 15 -15 38 -16 38 -2 0 6 -9 10 -20 10 -22 0 -27 15 -9 26 6 3 15 0 20
-7 4 -7 11 -10 15 -6 4 4 -7 28 -24 52 -18 25 -32 48 -32 50 0 3 12 24 26 46
26 41 26 42 8 81 -17 38 -17 39 4 54 12 8 22 23 22 33 0 9 5 22 11 28 8 8 8
25 -1 62 -12 53 -8 71 16 71 38 0 79 95 55 124 -17 20 11 74 41 78 29 4 34 29
14 70 -26 51 -20 73 25 106 35 26 38 31 23 40 -19 11 -11 32 13 32 19 0 53 28
53 43 0 6 -9 21 -21 33 l-20 22 36 6 c20 4 45 4 55 1 48 -15 83 27 38 44 -13
5 -31 18 -41 29 -17 19 -17 20 5 27 13 4 32 6 44 6 11 -1 28 7 38 18 17 18 41
20 33 3z m5793 -652 c0 -5 6 -10 14 -10 7 0 43 -22 79 -50 36 -27 70 -50 74
-50 4 0 27 -18 51 -40 24 -22 47 -40 52 -40 10 0 96 -89 140 -145 17 -22 55
-67 85 -100 30 -33 65 -75 77 -94 13 -19 25 -34 28 -34 20 3 98 27 112 34 10
5 29 9 43 9 14 0 25 6 25 13 0 8 19 43 42 78 86 132 108 172 108 203 0 43 10
55 43 49 30 -6 36 -20 12 -29 -8 -4 -15 -10 -15 -15 0 -12 57 -11 65 1 4 6 11
8 16 5 18 -12 8 -23 -26 -29 -40 -8 -42 -12 -18 -38 20 -22 37 -24 29 -3 -3 8
-2 15 3 15 13 0 32 -26 24 -33 -3 -4 0 -13 7 -22 10 -12 10 -15 -3 -15 -8 0
-18 6 -20 13 -4 8 -6 7 -6 -3 -1 -17 24 -58 45 -76 21 -17 36 -390 16 -403
-15 -9 -25 -68 -26 -151 -1 -65 -4 -79 -26 -103 -14 -16 -25 -32 -25 -35 0
-22 -64 -109 -126 -170 -71 -71 -104 -87 -115 -57 -6 14 -8 14 -18 1 -18 -24
-62 -31 -70 -11 -3 9 -11 13 -17 10 -6 -4 -8 -13 -5 -20 7 -19 -40 -25 -99
-14 -27 6 -82 10 -121 10 -55 -1 -73 3 -78 14 -6 17 -36 21 -36 5 0 -6 -19 0
-42 12 -37 19 -40 23 -20 26 12 2 22 10 22 18 0 17 -12 18 -29 2 -10 -11 -11
-10 -6 4 5 11 -2 22 -19 33 -16 11 -26 27 -26 41 0 13 -4 24 -10 24 -5 0 -10
16 -10 35 0 19 -4 35 -10 35 -5 0 -10 8 -10 19 0 10 -8 38 -19 62 -21 48 -34
139 -20 139 5 0 9 5 9 10 0 6 -6 10 -14 10 -15 0 -24 41 -32 145 -3 33 -6 71
-7 85 -2 14 -8 35 -15 48 -7 12 -14 42 -16 65 -1 23 -7 51 -13 62 -17 32 -26
132 -13 140 8 5 8 10 0 20 -15 18 -50 161 -50 206 0 21 -8 47 -20 62 -26 33
-25 37 5 37 14 0 25 -4 25 -10z m-1972 -269 c14 -16 41 -22 142 -32 69 -6 136
-13 150 -14 14 -2 72 -8 130 -15 58 -6 121 -15 140 -20 19 -4 67 -11 105 -15
39 -3 88 -11 110 -17 22 -6 50 -10 63 -9 13 1 28 -2 35 -7 19 -14 56 -21 59
-10 2 6 13 6 29 -1 15 -5 59 -13 98 -17 79 -7 100 -21 102 -62 l1 -27 7 29 c8
41 31 46 31 7 0 -33 15 -49 24 -26 3 8 1 15 -5 15 -6 0 -4 6 4 14 15 16 153
32 191 22 18 -4 26 -14 28 -33 2 -18 12 -32 29 -40 22 -11 27 -22 32 -64 4
-29 14 -60 23 -70 23 -26 32 -142 11 -133 -19 7 -31 -12 -22 -34 6 -16 8 -15
20 2 12 16 17 17 30 6 9 -8 25 -31 36 -52 11 -22 24 -36 30 -32 8 4 8 1 1 -13
-12 -21 -1 -88 17 -106 6 -6 11 -19 11 -28 0 -9 7 -22 15 -29 24 -20 18 -47
-15 -70 -33 -23 -35 -45 -6 -45 19 0 46 -42 39 -61 -2 -6 2 -14 10 -17 9 -3
13 -14 10 -31 -7 -34 13 -116 48 -200 29 -68 38 -136 19 -136 -6 0 -9 3 -9 8
1 4 1 15 0 25 -3 40 -71 -41 -71 -85 0 -11 2 -11 9 0 4 7 20 19 34 27 22 11
26 11 31 -2 12 -30 6 -83 -8 -83 -12 0 -13 -11 -9 -56 5 -51 4 -58 -21 -80
-14 -14 -26 -34 -26 -44 0 -22 -16 -27 -23 -7 -2 6 -8 9 -12 5 -11 -10 4 -60
15 -53 6 3 10 -1 10 -9 0 -10 -9 -16 -24 -16 -30 0 -79 -86 -62 -112 7 -12 6
-21 -3 -32 -17 -20 -31 -21 -31 -1 0 35 -18 11 -24 -32 -14 -99 -15 -103 -45
-103 -31 0 -54 -21 -70 -63 -6 -16 -15 -25 -21 -22 -6 4 -10 -7 -10 -25 0 -17
-3 -29 -7 -27 -5 3 -8 -15 -8 -40 -1 -35 -6 -48 -24 -62 -13 -10 -32 -16 -42
-14 -12 4 -19 0 -19 -9 0 -19 -23 -68 -32 -68 -5 0 -8 -9 -8 -19 0 -12 -15
-29 -37 -42 -21 -13 -47 -32 -58 -42 -12 -11 -29 -16 -42 -14 -17 3 -23 -1
-23 -14 0 -9 -3 -25 -7 -35 -5 -14 -3 -16 10 -11 15 6 16 3 7 -13 -6 -11 -20
-20 -30 -20 -11 0 -20 -4 -20 -9 0 -5 -19 -29 -42 -53 -44 -45 -83 -68 -118
-68 -13 0 -20 -7 -20 -20 0 -11 -4 -20 -9 -20 -5 0 -19 -11 -32 -25 -13 -13
-29 -25 -34 -25 -6 0 -15 -15 -20 -32 -9 -31 -13 -33 -53 -31 -24 1 -40 -2
-37 -7 3 -6 -10 -27 -30 -49 -29 -31 -45 -40 -84 -45 -29 -4 -51 -12 -55 -21
-11 -31 -29 -16 -23 20 3 21 2 33 -4 30 -5 -4 -9 -22 -9 -42 0 -20 -3 -33 -7
-30 -3 4 -13 2 -20 -5 -19 -15 -55 -18 -70 -6 -16 12 -34 1 -27 -16 9 -25 -44
-56 -96 -56 -54 0 -65 7 -47 29 8 10 -1 8 -26 -7 -21 -12 -46 -22 -55 -22 -9
0 -39 -11 -66 -24 -35 -17 -56 -22 -71 -16 -31 12 -130 -4 -120 -20 10 -16
-12 -20 -25 -5 -15 18 -86 10 -111 -12 -32 -27 -114 -15 -144 23 -11 13 -75 8
-75 -7 0 -14 -58 -11 -62 3 -3 8 -14 3 -30 -15 -35 -38 -54 -35 -66 13 -9 35
-7 41 12 55 20 15 20 15 1 6 -39 -18 -176 -40 -172 -27 2 6 18 10 35 8 36 -4
41 4 15 24 -22 17 -37 18 -27 2 5 -8 2 -9 -11 -4 -11 4 -25 0 -37 -11 -18 -16
-19 -15 -30 15 -9 23 -19 32 -35 32 -13 0 -26 1 -30 1 -4 1 -12 -5 -17 -14 -7
-11 -5 -21 7 -35 18 -20 22 -32 10 -32 -14 1 -83 66 -83 78 0 7 -5 12 -11 12
-7 0 -10 -12 -7 -30 4 -27 2 -29 -16 -24 -34 11 -50 32 -36 49 10 12 9 15 -4
15 -9 0 -16 -5 -16 -11 0 -8 -4 -8 -13 -1 -8 7 -17 7 -28 -1 -18 -14 -32 -47
-20 -47 5 0 11 5 13 11 4 13 38 1 38 -15 0 -23 -34 -33 -90 -26 -30 4 -61 5
-67 3 -22 -8 -27 27 -7 43 18 15 18 15 1 10 -27 -9 -39 2 -27 25 9 16 7 19
-15 19 -22 0 -25 -3 -19 -26 6 -23 5 -25 -12 -16 -62 33 -94 42 -113 32 -11
-5 -22 -10 -25 -10 -12 0 -6 32 13 70 21 45 9 67 -18 34 -23 -29 -44 -34 -66
-17 -20 14 -20 15 1 11 11 -2 21 2 20 7 0 6 -6 9 -12 7 -7 -1 -14 8 -16 20 -2
17 -9 22 -25 20 -19 -3 -23 1 -21 22 1 14 6 26 10 26 4 0 8 7 8 15 0 17 -16
20 -25 5 -3 -5 -17 -10 -30 -10 -12 0 -25 -7 -29 -15 -9 -25 -34 -17 -51 15
-9 17 -24 30 -34 30 -25 0 -32 10 -20 31 12 23 -3 25 -21 3 -8 -8 -22 -20 -33
-26 -18 -9 -19 -8 -13 15 3 14 2 28 -4 32 -5 3 -7 12 -3 21 3 8 -2 23 -11 33
-9 10 -13 21 -9 24 3 4 1 7 -5 7 -6 0 -14 -5 -17 -10 -4 -7 -13 -7 -26 0 -11
6 -24 8 -29 5 -5 -3 -11 -1 -15 5 -3 5 -1 10 5 10 7 0 9 7 6 15 -3 9 1 18 9
21 27 11 16 24 -14 18 -25 -5 -30 -3 -33 17 -2 16 -15 30 -40 42 -21 9 -38 22
-38 28 0 6 -7 18 -16 26 -8 9 -11 19 -6 22 5 3 7 22 5 42 -4 30 -10 38 -39 48
-20 7 -45 28 -59 49 -29 42 -31 52 -10 52 10 0 15 10 15 30 0 21 -4 28 -14 24
-7 -3 -16 1 -19 9 -3 9 -14 13 -31 10 -20 -4 -29 1 -45 28 -13 22 -17 37 -11
44 6 7 6 15 2 19 -4 4 -7 17 -7 29 0 17 -9 23 -45 32 l-45 11 -3 49 c-3 52
-28 84 -64 85 -11 0 -18 8 -18 21 0 13 4 18 13 14 6 -4 5 -1 -4 7 -12 10 -14
17 -6 30 16 24 -7 61 -45 76 -25 9 -29 14 -19 26 8 9 8 16 2 21 -6 3 -10 20
-9 38 2 46 -10 74 -33 80 -18 5 -19 11 -13 86 6 71 5 81 -10 81 -9 0 -16 8
-17 18 0 9 -2 48 -5 86 -3 51 0 76 11 93 17 26 20 69 5 78 -16 10 -12 91 5
105 8 6 19 9 25 5 13 -8 13 25 0 59 -8 21 -6 26 6 26 8 0 12 5 9 10 -4 6 -10
8 -15 5 -5 -3 -14 3 -20 14 -8 16 -6 23 10 34 12 8 18 20 15 30 -4 8 -2 18 4
22 19 11 12 49 -14 79 -30 35 -32 56 -6 63 12 3 23 21 31 49 13 45 8 80 -10
69 -5 -3 -10 3 -10 14 0 31 33 59 77 66 56 9 64 11 107 30 34 14 38 14 33 1
-3 -8 -2 -18 3 -21 5 -3 11 4 15 15 5 15 12 19 29 14 18 -4 25 -1 29 15 3 14
11 18 25 14 11 -2 23 0 26 6 4 6 20 11 35 11 15 0 31 4 37 10 5 5 34 12 64 15
29 3 56 7 58 10 3 3 11 0 18 -6 9 -7 20 -6 37 6 15 10 41 15 67 13 41 -3 58
-19 74 -70 3 -10 12 -18 20 -18 20 0 28 28 15 52 -14 27 -4 54 15 39 11 -9 15
-9 20 1 5 10 7 10 12 0 3 -7 11 -18 18 -25 27 -27 37 -56 26 -77 -12 -23 -4
-44 12 -34 19 12 1 -67 -19 -83 -14 -11 -14 -14 -2 -10 23 7 39 -26 32 -67 -5
-31 -1 -39 26 -62 18 -14 30 -29 27 -32 -3 -2 -1 -13 4 -23 7 -12 7 -34 0 -64
-10 -43 -9 -48 12 -65 13 -11 31 -19 41 -20 27 0 59 -37 49 -58 -5 -9 -7 -36
-4 -60 3 -33 10 -46 33 -59 16 -10 29 -21 29 -25 0 -4 7 -5 16 -1 20 8 35 -15
28 -43 -3 -12 -1 -25 6 -29 6 -4 8 -15 5 -25 -4 -11 4 -29 19 -47 22 -25 27
-27 46 -15 12 7 30 10 40 7 18 -6 22 -16 36 -99 8 -45 39 -84 48 -60 6 15 53
19 74 6 7 -5 16 -28 20 -53 l8 -44 59 0 c46 0 64 -4 80 -20 28 -26 41 -85 19
-85 -9 0 -12 -5 -8 -11 4 -8 28 -10 68 -6 74 7 116 0 116 -20 0 -21 52 -73 73
-73 10 0 34 7 53 15 36 15 37 14 65 -16 16 -17 29 -35 29 -40 0 -14 48 -11 83
5 18 8 49 16 70 19 32 5 37 3 37 -14 0 -11 9 -29 20 -41 11 -12 20 -17 20 -10
0 6 -5 14 -10 17 -21 13 1 23 38 18 30 -4 55 3 115 32 l78 36 57 -19 c40 -14
61 -17 69 -10 7 6 20 8 28 4 10 -3 13 -2 10 4 -12 19 15 78 38 84 40 11 75 6
81 -10 5 -14 9 -14 37 3 22 12 38 35 53 73 l22 55 64 10 c71 11 67 5 85 118 5
33 9 37 35 37 17 0 30 4 30 8 0 5 11 14 24 20 20 9 25 20 28 54 3 36 7 45 33
57 41 19 42 23 38 102 l-4 69 46 32 c50 35 56 59 31 118 -18 43 -11 73 14 60
11 -6 21 -6 24 -1 4 5 0 11 -6 14 -10 3 -10 9 1 30 12 23 11 30 -18 80 -32 56
-40 112 -21 147 15 28 3 47 -45 71 -24 12 -67 44 -96 70 -41 37 -61 49 -86 49
-18 0 -36 -6 -40 -13 -4 -8 -22 -22 -39 -32 -30 -17 -33 -17 -77 0 -53 20 -83
14 -91 -20 -5 -18 -13 -25 -30 -25 -37 0 -56 10 -56 31 0 10 -4 19 -10 19 -5
0 -10 -13 -10 -29 0 -17 -6 -31 -16 -35 -13 -5 -14 -9 -4 -20 17 -21 -4 -56
-35 -56 -26 0 -55 24 -55 45 0 21 -39 40 -53 26 -8 -8 -5 -15 9 -25 18 -14 18
-15 -8 -25 -18 -7 -28 -20 -33 -41 -10 -43 -29 -47 -71 -14 -52 42 -82 61 -67
44 14 -16 0 -40 -23 -40 -22 0 -17 48 6 62 16 11 20 24 20 75 0 71 6 93 27 93
10 0 12 6 8 20 -4 12 -1 27 5 35 7 8 10 24 7 36 -7 27 18 86 43 99 15 8 20 21
20 53 1 44 18 77 40 77 7 0 10 3 7 7 -6 6 20 43 30 43 3 0 12 -9 21 -19z
m-2948 -831 c0 -12 -6 -33 -14 -48 -24 -48 -28 -99 -11 -125 11 -17 14 -36 9
-64 -4 -29 -2 -42 10 -52 22 -18 20 -44 -4 -66 -11 -10 -20 -24 -20 -30 0 -7
-7 -18 -15 -25 -21 -18 -19 -29 10 -40 14 -5 25 -12 25 -16 0 -3 -8 -3 -17 1
-10 4 -31 7 -48 6 -16 -1 -43 5 -60 13 -16 8 -48 19 -70 25 -22 6 -69 18 -104
27 l-64 17 23 19 c12 10 34 21 49 24 14 4 36 16 49 27 13 12 37 26 54 32 19 6
38 23 49 45 11 19 33 49 49 67 35 37 55 80 65 141 7 43 35 61 35 22z m-674
-555 c19 -8 40 -12 47 -9 7 2 24 0 38 -5 22 -9 21 -10 -14 -10 -44 -1 -47 -21
-4 -32 20 -5 27 -4 27 7 0 8 11 15 28 16 15 0 35 1 46 2 10 0 29 -13 43 -30
l24 -32 -48 -7 c-26 -4 -56 -11 -66 -17 -10 -5 -41 -15 -69 -23 -47 -12 -50
-11 -58 9 -8 18 -9 16 -9 -12 -1 -25 -6 -35 -21 -39 -13 -4 -20 -14 -20 -30 0
-23 -3 -25 -29 -20 -31 7 -41 -8 -41 -66 0 -27 1 -27 24 -11 16 10 47 16 88
16 54 0 60 1 38 11 -14 6 -26 12 -28 13 -1 0 0 9 4 18 6 16 8 16 25 0 17 -15
21 -15 66 6 54 26 93 34 93 18 0 -6 6 -6 15 2 14 12 84 21 144 20 14 0 32 -7
42 -16 16 -14 18 -14 29 5 13 25 37 27 68 6 19 -14 24 -14 46 0 16 11 26 13
31 6 3 -6 17 -11 31 -11 13 0 24 -5 24 -12 0 -9 3 -9 12 0 19 19 28 14 28 -18
0 -20 11 -40 35 -65 20 -19 39 -35 44 -35 9 0 23 -34 29 -74 1 -5 9 -3 17 4
23 19 27 8 12 -36 -12 -34 -12 -42 6 -71 10 -18 26 -33 36 -33 33 0 44 -44 26
-106 -5 -17 1 -28 29 -49 20 -15 36 -34 36 -41 0 -8 7 -14 16 -14 12 0 14 -4
7 -12 -23 -30 -24 -126 -1 -112 5 3 15 -2 23 -12 7 -11 19 -19 27 -19 23 0 20
-20 -4 -24 -13 -1 -62 -16 -109 -32 -48 -16 -94 -29 -103 -29 -9 0 -24 -4 -34
-9 -33 -17 -68 -29 -257 -91 -104 -34 -197 -68 -206 -76 -24 -21 -29 -17 -29
21 0 19 -4 35 -9 35 -14 0 -19 -35 -9 -54 13 -23 -5 -43 -53 -58 -22 -6 -39
-15 -39 -20 0 -4 -26 -35 -57 -67 -32 -33 -76 -82 -97 -110 -22 -28 -46 -51
-54 -51 -8 0 -12 -6 -8 -15 9 -24 -4 -48 -19 -35 -9 8 -14 5 -18 -10 -3 -12 1
-23 10 -29 14 -7 13 -11 -5 -27 -15 -12 -22 -30 -22 -52 0 -18 -5 -42 -10 -52
-13 -24 -14 -168 -3 -290 5 -52 6 -96 1 -98 -15 -6 -9 -82 7 -88 18 -7 20 -50
3 -60 -7 -5 -5 -11 8 -21 15 -11 17 -17 6 -33 -16 -26 -15 -60 2 -60 18 0 30
-31 15 -40 -7 -5 -8 -10 -1 -14 11 -7 11 -30 -1 -33 -4 -2 -20 -3 -36 -3 -22
0 -31 6 -41 30 -7 16 -9 41 -6 55 5 21 3 25 -14 25 -11 0 -20 -4 -20 -10 0
-14 -26 -13 -52 3 -13 6 -48 37 -79 67 -31 30 -80 75 -110 100 -95 80 -111
101 -105 133 5 24 3 27 -13 22 -13 -4 -20 0 -24 15 -4 16 -13 20 -51 20 -47 0
-59 13 -34 38 10 10 8 19 -5 41 -13 22 -14 30 -5 34 8 3 6 6 -4 6 -10 1 -18 8
-18 16 0 8 -3 15 -8 15 -9 0 -32 37 -37 59 -7 33 -23 67 -39 80 -9 7 -16 20
-16 28 0 12 -7 14 -30 9 -19 -3 -29 -2 -25 4 3 6 13 10 21 10 22 0 17 35 -13
93 -22 43 -27 64 -25 121 1 38 -1 74 -5 79 -10 16 -4 132 13 246 17 120 48
198 82 207 15 4 22 14 22 30 0 44 37 98 94 139 30 22 57 47 59 57 3 10 14 18
26 18 12 0 21 6 21 14 0 13 61 66 75 66 4 0 5 -11 3 -25 -3 -14 -1 -25 3 -25
5 0 9 11 9 24 0 15 16 40 42 66 38 39 44 42 85 37 23 -2 43 0 43 5 0 5 5 6 10
3 6 -3 10 3 10 14 0 12 5 21 12 21 23 0 -7 18 -37 23 -20 3 -12 5 21 6 32 0
56 7 64 16 10 12 10 15 -1 15 -18 1 28 40 46 40 16 0 32 45 41 111 l7 49 -49
-17 c-27 -8 -56 -21 -64 -28 -8 -7 -22 -10 -30 -7 -8 2 -12 1 -8 -3 10 -10
-43 -52 -77 -61 -16 -4 -61 -29 -99 -56 -39 -26 -78 -48 -88 -48 -10 0 -18 -6
-18 -14 0 -7 -11 -21 -25 -30 -58 -38 -206 -203 -239 -267 -16 -30 -37 -65
-47 -78 -11 -13 -19 -39 -19 -57 0 -18 -4 -36 -10 -39 -5 -3 -10 -17 -10 -31
0 -14 -6 -24 -15 -24 -21 0 -29 60 -16 127 6 32 16 93 23 136 7 51 14 74 19
65 6 -9 9 -5 8 12 -2 36 25 115 39 116 23 3 24 4 11 20 -11 13 -10 17 4 25 11
7 17 23 17 49 0 21 6 45 13 52 23 24 74 112 80 138 4 14 15 35 27 47 11 12 20
28 20 34 0 17 30 49 46 49 7 0 14 -6 17 -12 2 -8 15 -1 34 20 29 30 73 44 73
22 0 -5 11 -17 24 -25 23 -15 27 -15 53 2 15 10 33 24 39 32 11 14 54 7 54
-10 0 -5 7 -9 15 -9 8 0 15 4 15 10 0 5 11 12 25 16 14 3 25 12 25 19 0 18 81
25 98 9 6 -7 12 -17 12 -23 0 -15 9 -14 26 4 9 8 26 15 38 15 13 0 29 7 36 15
15 19 22 19 66 0z m5724 -510 c83 0 100 -6 100 -37 0 -15 3 -18 13 -11 18 15
75 14 132 -2 171 -49 204 -60 240 -80 22 -13 55 -26 73 -30 17 -4 32 -11 32
-16 0 -5 8 -9 19 -9 10 0 24 -7 31 -15 7 -8 20 -15 29 -15 9 0 22 -9 29 -20 7
-12 17 -18 22 -15 10 6 50 -42 50 -61 0 -8 7 -14 15 -14 9 0 21 -11 27 -25 8
-17 14 -22 19 -14 10 17 59 -16 59 -40 0 -10 7 -24 15 -31 8 -7 15 -18 15 -24
0 -6 14 -24 31 -39 22 -19 29 -32 24 -47 -8 -26 11 -26 25 1 17 30 40 6 40
-42 0 -32 3 -39 20 -39 13 0 20 -7 20 -20 0 -10 6 -23 14 -27 30 -18 47 -77
42 -152 -2 -40 -9 -78 -15 -84 -6 -6 -11 -25 -11 -43 0 -24 -4 -31 -17 -30
-14 1 -19 -8 -21 -37 -2 -27 -7 -37 -17 -34 -10 4 -13 -7 -12 -44 0 -44 -5
-63 -33 -119 -4 -8 -13 -15 -21 -15 -10 0 -13 12 -11 43 2 28 -1 41 -8 37 -5
-3 -10 -17 -10 -30 0 -13 -4 -27 -10 -30 -12 -7 -14 -45 -2 -45 4 0 9 -15 10
-32 2 -37 -18 -65 -63 -88 -23 -12 -31 -23 -33 -50 -6 -72 -23 -94 -93 -119
-21 -8 -26 -15 -22 -33 3 -18 -5 -34 -35 -64 -28 -28 -41 -51 -46 -80 -8 -47
-37 -79 -81 -88 -31 -7 -185 -144 -185 -165 0 -7 -9 -9 -25 -5 -21 5 -24 3
-19 -10 7 -19 -12 -46 -32 -46 -20 0 -17 29 6 75 11 22 20 46 20 55 0 21 33
40 58 34 18 -5 52 26 52 48 0 13 -23 9 -41 -8 -10 -9 -25 -14 -33 -11 -22 9
10 97 35 97 13 0 19 7 19 21 0 18 -3 19 -15 9 -8 -6 -19 -9 -25 -5 -5 3 -10
-1 -10 -9 0 -9 -4 -16 -10 -16 -13 0 -13 19 2 60 9 27 8 35 -4 44 -15 11 -18
49 -5 62 4 4 7 14 7 22 0 10 -7 12 -25 8 -22 -6 -25 -3 -24 21 0 16 3 22 6 15
2 -6 9 -10 14 -6 5 3 5 13 -2 25 -8 16 -13 18 -25 9 -19 -17 -27 6 -22 71 3
50 3 50 -24 45 -24 -5 -28 -2 -28 19 0 19 6 24 33 28 l32 3 -32 8 c-23 6 -33
14 -33 28 0 15 -5 18 -19 13 -15 -5 -24 1 -36 26 -33 63 -46 111 -34 125 11
13 9 16 -17 18 -14 2 -104 100 -104 114 0 10 -112 137 -143 162 -44 35 -127
120 -127 129 0 6 -5 11 -11 11 -12 0 -92 66 -166 137 -75 73 -71 85 41 108 26
5 28 9 22 37 -3 18 -4 46 0 63 5 27 12 32 57 45 49 14 52 17 55 50 2 19 8 40
14 47 6 8 5 24 -3 48 -13 34 -12 38 11 56 14 10 34 19 46 19 31 0 43 19 37 58
-6 35 -6 35 23 26 16 -5 63 -9 104 -9z m-4630 -600 c5 -14 16 -25 25 -25 8 0
15 -5 15 -11 0 -7 -10 -9 -25 -5 -14 4 -25 2 -25 -3 0 -5 12 -11 28 -13 25 -3
27 -6 27 -53 0 -48 1 -50 30 -53 72 -7 106 -42 121 -124 3 -21 12 -42 20 -49
8 -6 14 -22 14 -36 0 -13 6 -31 14 -38 12 -12 15 -11 19 5 3 13 0 20 -9 20 -8
0 -14 7 -14 15 0 17 16 20 25 5 4 -6 15 -8 26 -5 16 5 19 1 20 -27 2 -31 3
-50 7 -90 2 -13 10 -15 41 -11 54 7 91 -28 91 -85 0 -35 4 -41 33 -53 17 -7
33 -14 35 -15 9 -6 -33 -67 -90 -126 -34 -37 -79 -85 -98 -107 -37 -44 -50
-50 -50 -26 0 8 -4 15 -8 15 -5 0 -7 -13 -4 -30 4 -30 -5 -36 -47 -30 -9 1
-12 -5 -8 -19 3 -15 1 -18 -11 -14 -11 5 -14 2 -9 -11 4 -10 1 -19 -8 -22 -8
-4 -15 -12 -15 -20 0 -21 -18 -17 -25 6 -7 21 -25 28 -25 10 0 -6 5 -19 12
-29 9 -15 7 -24 -10 -49 -12 -16 -30 -29 -39 -28 -12 1 -19 -7 -21 -24 -5 -35
-22 -53 -37 -40 -18 15 -49 1 -34 -16 28 -34 -29 -103 -100 -120 -39 -10 -43
-13 -23 -19 31 -10 28 -19 -13 -38 -24 -11 -33 -21 -29 -32 9 -23 -4 -49 -19
-38 -8 7 -22 6 -42 -3 l-30 -13 35 -2 c31 -1 32 -2 10 -8 -21 -6 -22 -8 -7
-14 31 -12 20 -30 -14 -23 -19 4 -38 1 -46 -6 -12 -10 -17 -9 -23 3 -7 12 -41
17 -68 10 -2 -1 4 -9 14 -18 17 -17 22 -19 52 -22 7 0 11 -5 7 -10 -7 -12 33
-51 52 -51 7 0 13 10 13 21 0 18 2 19 15 9 8 -7 15 -9 15 -4 0 4 7 -1 15 -12
8 -10 15 -29 15 -41 0 -13 6 -23 14 -23 29 0 29 -23 1 -47 l-28 -24 -29 36
c-29 35 -31 35 -54 20 -15 -9 -23 -11 -22 -4 2 6 -3 14 -9 16 -7 3 -13 0 -13
-6 0 -18 -18 -12 -25 7 -3 11 -15 23 -28 29 -24 10 -39 5 -93 -34 -32 -23 -44
-21 -44 5 0 8 -11 25 -25 38 -27 25 -74 29 -82 7 -10 -25 -30 -13 -51 31 -26
51 -55 63 -85 35 -29 -27 -48 -24 -77 12 -21 25 -34 31 -70 33 -38 2 -46 6
-48 24 -2 12 1 22 7 22 6 0 11 9 11 20 0 14 -6 20 -17 18 -22 -4 -60 59 -45
74 7 7 3 22 -14 49 -24 39 -34 119 -15 119 14 0 -13 48 -35 65 -15 11 -17 16
-6 27 10 10 16 10 32 0 23 -14 27 0 5 18 -8 7 -14 19 -13 26 2 7 -6 20 -17 28
-19 15 -19 15 8 16 20 0 27 5 27 20 0 11 -5 20 -11 20 -6 0 -9 6 -6 14 3 8 0
20 -8 26 -17 14 -17 17 -16 165 1 89 5 123 16 135 8 9 15 28 15 42 0 15 3 34
6 43 6 14 8 14 27 -2 20 -18 20 -17 14 5 -8 31 20 122 38 122 7 0 15 -6 18
-12 7 -23 36 11 35 41 -1 44 17 66 103 121 65 41 87 51 110 46 22 -4 29 -1 34
14 4 12 19 21 48 25 23 4 47 11 52 15 6 5 30 15 53 23 42 15 44 14 52 -6 l9
-22 0 23 c1 15 10 26 29 33 15 7 38 16 52 21 14 6 33 14 42 19 10 5 25 9 33 9
8 0 15 5 15 10 0 6 15 10 34 10 18 0 39 7 46 15 7 8 28 18 49 21 20 4 50 13
66 20 43 19 54 17 65 -11z m4091 -71 c13 -15 36 -34 50 -43 60 -37 215 -181
334 -311 53 -58 95 -122 95 -145 0 -8 9 -19 20 -25 11 -6 20 -16 20 -23 0 -7
9 -23 20 -35 11 -12 20 -26 20 -33 0 -6 8 -23 19 -37 10 -15 22 -38 26 -52 4
-14 18 -38 30 -55 35 -48 57 -115 50 -152 -4 -24 -2 -35 9 -39 26 -10 64 -77
56 -99 -4 -11 -5 -24 -2 -30 6 -9 12 -55 12 -90 1 -41 -23 -109 -53 -155 -21
-30 -40 -63 -43 -72 -3 -10 -9 -18 -14 -18 -15 0 -56 -43 -73 -76 -21 -41
-103 -113 -136 -120 -14 -3 -36 -10 -49 -15 -13 -5 -34 -9 -48 -9 -14 0 -38
-7 -54 -15 -23 -12 -74 -16 -234 -17 -181 -2 -249 5 -208 19 6 3 12 11 12 19
0 17 -41 19 -57 3 -7 -7 -19 -9 -28 -5 -14 5 -15 9 -6 20 7 8 11 20 10 28 -4
27 14 78 28 78 10 0 11 5 4 19 -8 15 -7 20 6 25 12 5 14 9 5 18 -16 16 -15 28
3 28 19 0 19 4 -1 65 -34 108 -35 114 -24 135 6 11 8 21 5 21 -3 1 -10 2 -16
3 -5 0 -20 26 -33 57 -12 30 -30 66 -39 79 -9 14 -17 35 -17 47 0 13 -5 23
-10 23 -6 0 -15 10 -20 23 -6 12 -20 38 -33 59 -12 20 -35 58 -51 85 -16 26
-42 64 -58 84 -15 20 -28 42 -28 47 0 6 -6 15 -14 19 -8 5 -33 34 -55 65 -46
63 -42 74 24 80 39 3 39 3 50 58 8 46 14 56 33 58 12 2 22 8 22 13 0 5 15 9
34 9 42 0 52 13 59 73 2 26 7 50 9 53 3 2 29 7 57 11 55 6 71 23 71 77 0 37
21 55 70 59 62 4 70 11 70 66 0 73 28 91 71 45z m-1167 -799 c17 -17 11 -43
-23 -100 -10 -16 -35 -61 -56 -100 -72 -135 -115 -200 -166 -255 -28 -30 -57
-67 -65 -82 -8 -15 -20 -31 -27 -35 -7 -4 -23 -25 -37 -45 -14 -21 -28 -38
-32 -38 -4 0 -15 -15 -24 -32 -9 -18 -25 -42 -35 -53 -10 -11 -31 -35 -45 -52
-14 -18 -34 -33 -44 -33 -13 0 -17 -5 -13 -19 3 -12 -6 -31 -26 -52 -17 -17
-31 -35 -31 -38 0 -3 -10 -17 -23 -31 -13 -14 -27 -33 -33 -42 -8 -14 -56 -69
-149 -169 -23 -25 -37 -33 -48 -28 -11 7 -16 0 -21 -30 -5 -36 -8 -39 -48 -44
-44 -6 -68 5 -68 30 0 7 -16 27 -35 44 -19 17 -38 42 -41 55 -4 14 -14 29 -23
34 -9 5 -35 46 -57 91 -21 46 -51 107 -65 136 -23 48 -24 55 -10 63 20 11 9
22 -23 23 -15 0 -23 4 -20 12 3 6 -2 18 -11 25 -8 7 -15 18 -15 24 0 7 -16 31
-35 53 -19 23 -35 47 -35 55 0 8 -4 18 -9 24 -8 8 -142 263 -192 364 -12 25
-31 62 -41 83 -15 30 -17 41 -7 53 17 20 26 18 81 -22 44 -33 50 -35 66 -21
21 19 89 18 97 0 2 -8 10 -13 17 -12 18 3 70 -12 86 -24 9 -7 12 -3 12 17 0
24 3 26 44 26 28 0 52 -7 69 -20 l25 -20 36 21 c20 11 36 26 36 31 0 7 20 9
55 5 30 -3 57 -1 60 4 4 5 20 9 36 9 22 0 32 -6 39 -25 14 -37 65 -34 107 5
35 33 48 37 56 16 3 -7 29 -16 62 -20 51 -6 59 -4 76 15 11 12 19 26 19 31 0
5 11 14 25 20 22 10 30 8 55 -10 38 -28 46 -28 80 6 54 53 58 55 91 42 25 -11
32 -10 48 4 24 21 49 20 89 -4 33 -20 72 -19 72 1 0 16 39 49 59 49 11 0 26
-7 35 -15z"/>
<path d="M4756 9163 c-5 -27 -13 -43 -22 -43 -8 0 -14 -4 -14 -10 0 -14 34
-12 49 3 10 10 12 7 9 -13 -2 -14 -9 -24 -16 -22 -6 1 -12 -7 -12 -18 0 -11 5
-20 10 -20 6 0 10 4 10 10 0 11 39 34 46 27 3 -3 -4 -20 -14 -39 l-20 -34 29
4 c32 5 35 12 17 30 -13 13 -1 16 26 6 12 -5 13 -10 5 -27 -10 -17 -9 -19 6
-14 9 4 23 7 31 7 8 0 14 8 14 17 0 14 2 15 13 4 10 -11 10 -14 0 -18 -14 -5
-18 -33 -5 -33 5 0 17 6 28 14 13 10 23 11 31 4 19 -15 17 19 -1 38 -17 17
-30 19 -20 3 4 -7 1 -10 -7 -7 -9 3 -13 15 -11 31 3 21 -1 27 -17 27 -11 0
-22 -4 -25 -9 -10 -16 -45 -1 -39 17 5 11 2 14 -11 9 -13 -5 -18 0 -23 23 -3
17 -12 30 -20 30 -8 0 -11 -4 -8 -10 3 -5 -1 -10 -9 -10 -9 0 -16 12 -18 33
-3 31 -4 31 -12 -10z"/>
<path d="M5559 8590 c-9 -5 -20 -22 -24 -37 -3 -14 -15 -38 -27 -52 l-20 -26
36 -6 c55 -9 69 -26 61 -75 -5 -39 -4 -44 26 -64 17 -13 38 -38 45 -56 41 -97
-26 -183 -132 -171 -64 7 -96 42 -102 111 -4 50 -1 59 25 93 30 37 30 39 14
70 -9 18 -20 33 -26 33 -10 0 -49 -58 -79 -117 -28 -56 -15 -117 38 -177 20
-22 23 -32 15 -43 -9 -10 -7 -13 12 -11 23 2 89 -37 89 -52 0 -4 10 -6 23 -4
12 2 43 6 68 9 57 7 94 37 120 95 24 54 24 106 -1 157 -11 22 -23 58 -28 79
-10 41 -64 182 -87 224 -16 29 -24 33 -46 20z"/>
<path d="M6461 8064 c-19 -9 -45 -14 -58 -11 -13 2 -23 1 -23 -3 0 -8 -78 -60
-90 -60 -12 0 -290 -274 -290 -286 0 -6 11 -16 24 -22 14 -6 43 -27 64 -47 44
-39 54 -42 72 -20 11 13 15 13 21 3 6 -9 9 -7 9 8 0 36 176 203 255 243 55 28
69 32 76 20 8 -12 11 -11 20 4 6 9 15 15 20 11 5 -3 17 0 26 8 23 19 157 15
178 -5 8 -9 15 -20 15 -26 0 -6 11 -11 25 -11 14 0 25 -5 25 -11 0 -5 14 -15
30 -20 21 -8 30 -17 30 -33 0 -26 25 -52 55 -58 12 -2 21 -13 23 -28 2 -14 15
-36 28 -48 25 -24 29 -59 6 -54 -16 3 -15 -15 1 -21 6 -2 26 -2 44 1 28 4 38
-1 77 -42 25 -25 52 -46 60 -46 20 0 24 30 9 60 -7 14 -13 37 -13 52 0 16 -19
55 -45 94 -25 36 -45 70 -45 76 0 13 -27 44 -116 134 -60 60 -82 75 -145 99
-41 15 -81 31 -91 36 -9 4 -67 10 -130 13 -90 5 -120 3 -147 -10z"/>
<path d="M4306 7721 c5 -24 3 -32 -12 -37 -11 -4 -37 -15 -60 -25 -22 -11 -44
-19 -48 -19 -4 0 -41 -16 -82 -36 -41 -20 -81 -33 -89 -30 -9 3 -15 0 -15 -8
0 -17 -31 -30 -40 -17 -3 6 -11 2 -18 -9 -8 -14 -9 -20 -1 -20 6 0 3 -7 -5
-16 -14 -14 -9 -22 57 -86 150 -148 204 -187 280 -203 18 -4 37 -12 44 -17 8
-6 20 -4 37 7 25 17 66 13 66 -6 0 -5 10 0 22 11 13 11 34 23 48 26 14 3 44
15 67 27 42 22 42 22 57 2 13 -17 15 -18 16 -3 0 20 27 37 49 31 9 -2 29 1 44
6 24 9 27 16 25 47 -2 27 3 40 21 53 l23 18 -27 21 c-15 12 -32 22 -37 22 -5
0 -6 5 -3 10 3 6 1 10 -4 10 -6 0 -11 -5 -11 -11 0 -5 -4 -7 -10 -4 -5 3 -10
15 -10 27 0 13 -5 18 -14 15 -8 -3 -22 3 -31 13 -10 11 -25 22 -35 25 -9 3
-24 20 -33 39 -10 22 -22 33 -34 32 -14 -1 -19 8 -24 39 -4 28 -8 35 -13 24
-4 -9 -6 -22 -4 -29 2 -7 -3 -15 -9 -17 -7 -3 -13 0 -13 6 0 11 -76 36 -97 32
-7 -1 -13 6 -13 16 -1 25 -21 49 -47 57 -21 7 -22 5 -17 -23z m-102 -188 c-11
-36 -11 -143 0 -165 17 -36 -21 -18 -90 43 -38 33 -70 64 -72 68 -2 7 144 81
162 81 4 0 4 -12 0 -27z"/>
<path d="M6610 7665 c-19 -13 -41 -24 -48 -24 -7 -1 -25 -10 -40 -20 -51 -37
-65 -35 -84 11 -15 35 -20 39 -33 28 -19 -16 -19 -31 0 -24 9 4 17 -1 21 -12
3 -11 10 -27 15 -36 7 -13 2 -21 -21 -35 -17 -9 -30 -21 -30 -26 0 -4 -21 -30
-46 -57 -40 -42 -44 -51 -34 -70 6 -11 8 -29 5 -40 -5 -14 2 -23 24 -35 17 -8
31 -21 31 -28 0 -8 4 -7 10 3 7 12 18 13 64 3 31 -7 77 -22 103 -34 27 -12 67
-23 89 -24 23 -1 46 -5 53 -9 6 -4 11 -3 11 2 0 5 21 17 48 27 26 10 53 22 60
28 8 6 17 5 26 -2 12 -10 17 -8 26 10 15 28 70 83 91 91 9 3 26 28 38 54 22
46 22 48 5 86 -12 27 -20 35 -29 28 -11 -9 -99 39 -136 74 -9 9 -21 16 -28 16
-7 0 -24 6 -39 14 -15 8 -47 17 -72 20 -37 5 -51 1 -80 -19z"/>
<path d="M5730 7213 c-8 -4 -21 -12 -28 -20 -8 -8 -40 -31 -71 -53 -31 -21
-71 -52 -89 -69 -36 -34 -72 -40 -92 -16 -7 8 -16 15 -20 15 -4 0 -35 18 -68
40 -33 22 -66 40 -75 40 -8 0 -20 7 -27 15 -7 8 -21 15 -32 15 -18 0 -19 -5
-13 -72 8 -87 40 -247 61 -303 21 -58 44 -247 32 -262 -19 -24 -15 -84 7 -99
19 -13 20 -25 20 -163 0 -82 -3 -147 -7 -145 -11 7 -10 -24 2 -47 6 -11 8 -45
4 -83 l-7 -64 -25 14 c-14 7 -28 12 -29 10 -8 -7 10 -36 22 -36 29 0 24 -102
-6 -121 -6 -4 -6 -15 0 -32 13 -34 6 -53 -22 -61 -20 -5 -21 -7 -6 -22 19 -18
13 -46 -27 -126 -13 -26 -21 -54 -18 -63 5 -11 -1 -15 -20 -15 -14 0 -26 -4
-26 -10 0 -5 6 -10 14 -10 25 0 29 -20 9 -48 -10 -15 -18 -40 -19 -57 -1 -16
-19 -66 -40 -110 -21 -44 -39 -87 -41 -95 -2 -19 -26 -81 -36 -98 -5 -7 -13
-10 -18 -7 -5 4 -9 2 -9 -2 0 -5 -14 -17 -31 -27 l-32 -19 7 27 c8 31 -10 36
-19 5 -9 -27 -1 -33 40 -31 l35 3 -26 -73 c-14 -40 -30 -82 -35 -93 -9 -22
-28 -114 -38 -190 -4 -27 -12 -59 -18 -70 -11 -20 -10 -105 4 -320 3 -55 6
-115 6 -132 0 -18 3 -33 7 -33 3 0 7 -13 8 -28 1 -16 13 -57 27 -92 14 -35 25
-72 25 -82 0 -10 4 -18 8 -18 13 0 32 23 32 40 0 8 9 33 21 54 11 21 23 60 26
86 4 38 9 47 21 42 11 -4 14 -1 9 10 -3 9 -8 47 -11 84 -16 179 -16 183 1 192
13 8 13 12 2 29 -10 16 -10 36 -1 94 20 130 42 242 51 253 4 6 14 31 21 55 9
26 21 46 32 49 13 3 17 10 12 24 -3 10 1 30 10 43 9 13 16 31 16 38 0 8 9 17
21 20 15 4 19 11 15 25 -5 13 -1 22 10 26 13 5 14 9 3 22 -10 13 -9 16 9 21
26 6 38 39 22 58 -7 9 -8 15 0 20 5 3 10 15 10 26 0 16 5 19 23 15 12 -3 16
-3 10 0 -15 6 -17 45 -4 60 4 5 14 30 21 56 7 26 24 59 38 73 18 19 22 28 14
38 -14 17 -4 57 15 57 11 0 13 7 8 29 -3 16 -2 38 4 48 20 36 67 165 81 223 5
19 22 82 39 140 16 58 41 170 55 249 14 82 31 148 38 152 7 5 8 9 3 9 -7 0 -7
29 1 88 7 48 13 87 14 87 1 0 3 32 6 70 2 39 6 79 8 90 2 11 7 45 11 75 3 30
15 114 25 185 11 72 22 165 26 208 7 80 4 85 -36 70z"/>
<path d="M8526 8008 c-9 -12 -16 -35 -16 -51 0 -19 -4 -27 -12 -24 -7 2 -13
12 -13 23 0 12 -6 18 -17 16 -9 -1 -19 2 -23 8 -9 14 -35 -6 -35 -26 0 -8 -9
-14 -20 -14 -25 0 -26 -18 -2 -27 9 -4 20 -11 24 -17 5 -7 8 -4 8 6 0 11 5 15
15 12 10 -4 15 0 15 12 1 17 3 16 21 -5 l20 -24 -27 -24 c-19 -16 -22 -23 -12
-23 9 0 33 -17 54 -37 27 -28 39 -34 42 -24 3 8 -10 27 -27 43 -31 28 -38 57
-14 65 6 2 14 -5 18 -16 7 -22 35 -18 35 4 0 7 6 15 12 17 9 3 8 10 -5 22 -10
10 -25 15 -33 12 -12 -5 -15 -2 -9 11 4 10 10 27 13 38 2 11 9 26 15 33 6 8 6
12 -1 12 -6 0 -18 -10 -26 -22z"/>
<path d="M5530 2194 c-30 -8 -72 -26 -92 -40 -31 -20 -38 -30 -38 -57 0 -109
226 -132 325 -33 35 35 31 62 -14 107 -33 34 -45 39 -82 38 -24 0 -69 -7 -99
-15z"/>
</g>
</svg>
